G04 #@! TF.FileFunction,Copper,L2,Bot,Signal*
%FSLAX46Y46*%
G04 Gerber Fmt 4.6, Leading zero omitted, Abs format (unit mm)*
G04 Created by KiCad (PCBNEW 4.0.6) date Friday, March 31, 2017 'PMt' 06:41:41 PM*
%MOMM*%
%LPD*%
G01*
G04 APERTURE LIST*
%ADD10C,0.100000*%
%ADD11C,1.879600*%
%ADD12R,1.879600X1.879600*%
%ADD13O,3.500120X1.699260*%
%ADD14C,0.685800*%
%ADD15C,0.600000*%
%ADD16C,0.152400*%
%ADD17C,0.254000*%
G04 APERTURE END LIST*
D10*
D11*
X158496000Y-110744000D03*
D12*
X158496000Y-113284000D03*
D11*
X158496000Y-105664000D03*
X158496000Y-108204000D03*
X138684000Y-108204000D03*
D12*
X138684000Y-105664000D03*
D11*
X138684000Y-113284000D03*
X138684000Y-110744000D03*
D13*
X147828000Y-109220000D03*
X147828000Y-106680000D03*
X147828000Y-111760000D03*
D11*
X148590000Y-99060000D03*
D12*
X146050000Y-99060000D03*
D11*
X153670000Y-99060000D03*
X151130000Y-99060000D03*
D14*
X157226000Y-116586000D03*
X136906000Y-116586000D03*
X147066000Y-116586000D03*
X153670000Y-117348000D03*
X150114000Y-121920000D03*
X160274000Y-121920000D03*
X139954000Y-121920000D03*
D15*
X147828000Y-111760000D02*
X153924000Y-111760000D01*
X154940000Y-110744000D02*
X158496000Y-110744000D01*
X153924000Y-111760000D02*
X154940000Y-110744000D01*
X149225000Y-111760000D02*
X147828000Y-111760000D01*
D16*
X153670000Y-117348000D02*
X153670000Y-121920000D01*
X139954000Y-121920000D02*
X150114000Y-121920000D01*
X150114000Y-121920000D02*
X153670000Y-121920000D01*
X153670000Y-121920000D02*
X160274000Y-121920000D01*
D17*
G36*
X167946000Y-97818265D02*
X167843147Y-97569342D01*
X167102557Y-96827458D01*
X166134433Y-96425458D01*
X165086166Y-96424543D01*
X164117342Y-96824853D01*
X163375458Y-97565443D01*
X162973458Y-98533567D01*
X162972543Y-99581834D01*
X163372853Y-100550658D01*
X164113443Y-101292542D01*
X165081567Y-101694542D01*
X166129834Y-101695457D01*
X167098658Y-101295147D01*
X167840542Y-100554557D01*
X167946000Y-100300586D01*
X167946000Y-119408265D01*
X167843147Y-119159342D01*
X167102557Y-118417458D01*
X166134433Y-118015458D01*
X165086166Y-118014543D01*
X164117342Y-118414853D01*
X163375458Y-119155443D01*
X162973458Y-120123567D01*
X162972543Y-121171834D01*
X163372853Y-122140658D01*
X164113443Y-122882542D01*
X165081567Y-123284542D01*
X166129834Y-123285457D01*
X167098658Y-122885147D01*
X167840542Y-122144557D01*
X167946000Y-121890586D01*
X167946000Y-124258000D01*
X129234000Y-124258000D01*
X129234000Y-122145735D01*
X129336853Y-122394658D01*
X130077443Y-123136542D01*
X131045567Y-123538542D01*
X132093834Y-123539457D01*
X133062658Y-123139147D01*
X133804542Y-122398557D01*
X133922840Y-122113663D01*
X138975931Y-122113663D01*
X139124493Y-122473212D01*
X139399341Y-122748540D01*
X139758630Y-122897730D01*
X140147663Y-122898069D01*
X140507212Y-122749507D01*
X140625726Y-122631200D01*
X149442206Y-122631200D01*
X149559341Y-122748540D01*
X149918630Y-122897730D01*
X150307663Y-122898069D01*
X150667212Y-122749507D01*
X150785726Y-122631200D01*
X159602206Y-122631200D01*
X159719341Y-122748540D01*
X160078630Y-122897730D01*
X160467663Y-122898069D01*
X160827212Y-122749507D01*
X161102540Y-122474659D01*
X161251730Y-122115370D01*
X161252069Y-121726337D01*
X161103507Y-121366788D01*
X160828659Y-121091460D01*
X160469370Y-120942270D01*
X160080337Y-120941931D01*
X159720788Y-121090493D01*
X159602274Y-121208800D01*
X154381200Y-121208800D01*
X154381200Y-118019794D01*
X154498540Y-117902659D01*
X154647730Y-117543370D01*
X154648069Y-117154337D01*
X154499507Y-116794788D01*
X154224659Y-116519460D01*
X153865370Y-116370270D01*
X153476337Y-116369931D01*
X153116788Y-116518493D01*
X152841460Y-116793341D01*
X152692270Y-117152630D01*
X152691931Y-117541663D01*
X152840493Y-117901212D01*
X152958800Y-118019726D01*
X152958800Y-121208800D01*
X150785794Y-121208800D01*
X150668659Y-121091460D01*
X150309370Y-120942270D01*
X149920337Y-120941931D01*
X149560788Y-121090493D01*
X149442274Y-121208800D01*
X140625794Y-121208800D01*
X140508659Y-121091460D01*
X140149370Y-120942270D01*
X139760337Y-120941931D01*
X139400788Y-121090493D01*
X139125460Y-121365341D01*
X138976270Y-121724630D01*
X138975931Y-122113663D01*
X133922840Y-122113663D01*
X134206542Y-121430433D01*
X134207457Y-120382166D01*
X133807147Y-119413342D01*
X133066557Y-118671458D01*
X132098433Y-118269458D01*
X131050166Y-118268543D01*
X130081342Y-118668853D01*
X129339458Y-119409443D01*
X129234000Y-119663414D01*
X129234000Y-104724200D01*
X137096760Y-104724200D01*
X137096760Y-106603800D01*
X137141038Y-106839117D01*
X137280110Y-107055241D01*
X137473410Y-107187317D01*
X137349728Y-107310783D01*
X137109474Y-107889379D01*
X137108927Y-108515873D01*
X137348171Y-109094887D01*
X137726896Y-109474273D01*
X137349728Y-109850783D01*
X137109474Y-110429379D01*
X137108927Y-111055873D01*
X137348171Y-111634887D01*
X137726896Y-112014273D01*
X137349728Y-112390783D01*
X137109474Y-112969379D01*
X137108927Y-113595873D01*
X137348171Y-114174887D01*
X137790783Y-114618272D01*
X138369379Y-114858526D01*
X138995873Y-114859073D01*
X139574887Y-114619829D01*
X140018272Y-114177217D01*
X140258526Y-113598621D01*
X140259073Y-112972127D01*
X140019829Y-112393113D01*
X139641104Y-112013727D01*
X139986733Y-111668701D01*
X140129335Y-111811553D01*
X140592271Y-112003781D01*
X141093530Y-112004218D01*
X141556800Y-111812799D01*
X141911553Y-111458665D01*
X142103781Y-110995729D01*
X142104218Y-110494470D01*
X141912799Y-110031200D01*
X141558665Y-109676447D01*
X141095729Y-109484219D01*
X140594470Y-109483782D01*
X140131200Y-109675201D01*
X139986461Y-109819687D01*
X139641104Y-109473727D01*
X139895274Y-109220000D01*
X145396214Y-109220000D01*
X145509225Y-109788143D01*
X145831052Y-110269792D01*
X146160617Y-110490000D01*
X145831052Y-110710208D01*
X145509225Y-111191857D01*
X145396214Y-111760000D01*
X145509225Y-112328143D01*
X145831052Y-112809792D01*
X146312701Y-113131619D01*
X146880844Y-113244630D01*
X148775156Y-113244630D01*
X149343299Y-113131619D01*
X149824948Y-112809792D01*
X149901649Y-112695000D01*
X153924000Y-112695000D01*
X154281809Y-112623827D01*
X154585145Y-112421145D01*
X155327290Y-111679000D01*
X157204207Y-111679000D01*
X157287549Y-111762488D01*
X157104759Y-111880110D01*
X156959769Y-112092310D01*
X156908760Y-112344200D01*
X156908760Y-114223800D01*
X156953038Y-114459117D01*
X157092110Y-114675241D01*
X157304310Y-114820231D01*
X157556200Y-114871240D01*
X159435800Y-114871240D01*
X159671117Y-114826962D01*
X159887241Y-114687890D01*
X160032231Y-114475690D01*
X160083240Y-114223800D01*
X160083240Y-112344200D01*
X160038962Y-112108883D01*
X159899890Y-111892759D01*
X159706590Y-111760683D01*
X159830272Y-111637217D01*
X160070526Y-111058621D01*
X160071073Y-110432127D01*
X159831829Y-109853113D01*
X159453104Y-109473727D01*
X159830272Y-109097217D01*
X160070526Y-108518621D01*
X160071073Y-107892127D01*
X159831829Y-107313113D01*
X159453104Y-106933727D01*
X159830272Y-106557217D01*
X160070526Y-105978621D01*
X160071073Y-105352127D01*
X159831829Y-104773113D01*
X159389217Y-104329728D01*
X158810621Y-104089474D01*
X158184127Y-104088927D01*
X157605113Y-104328171D01*
X157161728Y-104770783D01*
X156921474Y-105349379D01*
X156920927Y-105975873D01*
X157160171Y-106554887D01*
X157538896Y-106934273D01*
X157193267Y-107279299D01*
X157050665Y-107136447D01*
X156587729Y-106944219D01*
X156086470Y-106943782D01*
X155623200Y-107135201D01*
X155268447Y-107489335D01*
X155076219Y-107952271D01*
X155075782Y-108453530D01*
X155267201Y-108916800D01*
X155621335Y-109271553D01*
X156084271Y-109463781D01*
X156585530Y-109464218D01*
X157048800Y-109272799D01*
X157193539Y-109128313D01*
X157538896Y-109474273D01*
X157203584Y-109809000D01*
X154940000Y-109809000D01*
X154582191Y-109880173D01*
X154278855Y-110082855D01*
X153536710Y-110825000D01*
X149901649Y-110825000D01*
X149824948Y-110710208D01*
X149495383Y-110490000D01*
X149824948Y-110269792D01*
X150146775Y-109788143D01*
X150259786Y-109220000D01*
X150146775Y-108651857D01*
X149824948Y-108170208D01*
X149519867Y-107966360D01*
X149641180Y-107908878D01*
X150041972Y-107466041D01*
X150089398Y-107273206D01*
X150000762Y-107053000D01*
X148201000Y-107053000D01*
X148201000Y-107073000D01*
X147455000Y-107073000D01*
X147455000Y-107053000D01*
X145655238Y-107053000D01*
X145566602Y-107273206D01*
X145614028Y-107466041D01*
X146014820Y-107908878D01*
X146136133Y-107966360D01*
X145831052Y-108170208D01*
X145509225Y-108651857D01*
X145396214Y-109220000D01*
X139895274Y-109220000D01*
X140018272Y-109097217D01*
X140258526Y-108518621D01*
X140259073Y-107892127D01*
X140019829Y-107313113D01*
X139892451Y-107185512D01*
X140075241Y-107067890D01*
X140220231Y-106855690D01*
X140271240Y-106603800D01*
X140271240Y-106086794D01*
X145566602Y-106086794D01*
X145655238Y-106307000D01*
X147455000Y-106307000D01*
X147455000Y-105195370D01*
X148201000Y-105195370D01*
X148201000Y-106307000D01*
X150000762Y-106307000D01*
X150089398Y-106086794D01*
X150041972Y-105893959D01*
X149641180Y-105451122D01*
X149101430Y-105195370D01*
X148201000Y-105195370D01*
X147455000Y-105195370D01*
X146554570Y-105195370D01*
X146014820Y-105451122D01*
X145614028Y-105893959D01*
X145566602Y-106086794D01*
X140271240Y-106086794D01*
X140271240Y-104724200D01*
X140226962Y-104488883D01*
X140087890Y-104272759D01*
X139875690Y-104127769D01*
X139623800Y-104076760D01*
X137744200Y-104076760D01*
X137508883Y-104121038D01*
X137292759Y-104260110D01*
X137147769Y-104472310D01*
X137096760Y-104724200D01*
X129234000Y-104724200D01*
X129234000Y-100301735D01*
X129336853Y-100550658D01*
X130077443Y-101292542D01*
X131045567Y-101694542D01*
X132093834Y-101695457D01*
X133062658Y-101295147D01*
X133804542Y-100554557D01*
X134206542Y-99586433D01*
X134207457Y-98538166D01*
X134034757Y-98120200D01*
X144462760Y-98120200D01*
X144462760Y-99999800D01*
X144507038Y-100235117D01*
X144646110Y-100451241D01*
X144858310Y-100596231D01*
X145110200Y-100647240D01*
X146989800Y-100647240D01*
X147225117Y-100602962D01*
X147441241Y-100463890D01*
X147557104Y-100294320D01*
X147720144Y-100457360D01*
X147865219Y-100312285D01*
X147973804Y-100542707D01*
X148588116Y-100665651D01*
X149202716Y-100544150D01*
X149206196Y-100542707D01*
X149314782Y-100312284D01*
X148590000Y-99587502D01*
X148575858Y-99601644D01*
X148048356Y-99074142D01*
X148062498Y-99060000D01*
X149117502Y-99060000D01*
X149643333Y-99585831D01*
X149794171Y-99950887D01*
X150236783Y-100394272D01*
X150815379Y-100634526D01*
X151441873Y-100635073D01*
X152020887Y-100395829D01*
X152400273Y-100017104D01*
X152776783Y-100394272D01*
X153355379Y-100634526D01*
X153981873Y-100635073D01*
X154560887Y-100395829D01*
X155004272Y-99953217D01*
X155244526Y-99374621D01*
X155245073Y-98748127D01*
X155005829Y-98169113D01*
X154563217Y-97725728D01*
X153984621Y-97485474D01*
X153358127Y-97484927D01*
X152779113Y-97724171D01*
X152399727Y-98102896D01*
X152054701Y-97757267D01*
X152197553Y-97614665D01*
X152389781Y-97151729D01*
X152390218Y-96650470D01*
X152198799Y-96187200D01*
X151844665Y-95832447D01*
X151381729Y-95640219D01*
X150880470Y-95639782D01*
X150417200Y-95831201D01*
X150062447Y-96185335D01*
X149870219Y-96648271D01*
X149869782Y-97149530D01*
X150061201Y-97612800D01*
X150205687Y-97757539D01*
X149795728Y-98166783D01*
X149643065Y-98534437D01*
X149117502Y-99060000D01*
X148062498Y-99060000D01*
X148048356Y-99045858D01*
X148575858Y-98518356D01*
X148590000Y-98532498D01*
X149314782Y-97807716D01*
X149206196Y-97577293D01*
X148591884Y-97454349D01*
X147977284Y-97575850D01*
X147973804Y-97577293D01*
X147865219Y-97807715D01*
X147720144Y-97662640D01*
X147555742Y-97827042D01*
X147453890Y-97668759D01*
X147241690Y-97523769D01*
X146989800Y-97472760D01*
X145110200Y-97472760D01*
X144874883Y-97517038D01*
X144658759Y-97656110D01*
X144513769Y-97868310D01*
X144462760Y-98120200D01*
X134034757Y-98120200D01*
X133807147Y-97569342D01*
X133066557Y-96827458D01*
X132098433Y-96425458D01*
X131050166Y-96424543D01*
X130081342Y-96824853D01*
X129339458Y-97565443D01*
X129234000Y-97819414D01*
X129234000Y-94690000D01*
X167946000Y-94690000D01*
X167946000Y-97818265D01*
X167946000Y-97818265D01*
G37*
X167946000Y-97818265D02*
X167843147Y-97569342D01*
X167102557Y-96827458D01*
X166134433Y-96425458D01*
X165086166Y-96424543D01*
X164117342Y-96824853D01*
X163375458Y-97565443D01*
X162973458Y-98533567D01*
X162972543Y-99581834D01*
X163372853Y-100550658D01*
X164113443Y-101292542D01*
X165081567Y-101694542D01*
X166129834Y-101695457D01*
X167098658Y-101295147D01*
X167840542Y-100554557D01*
X167946000Y-100300586D01*
X167946000Y-119408265D01*
X167843147Y-119159342D01*
X167102557Y-118417458D01*
X166134433Y-118015458D01*
X165086166Y-118014543D01*
X164117342Y-118414853D01*
X163375458Y-119155443D01*
X162973458Y-120123567D01*
X162972543Y-121171834D01*
X163372853Y-122140658D01*
X164113443Y-122882542D01*
X165081567Y-123284542D01*
X166129834Y-123285457D01*
X167098658Y-122885147D01*
X167840542Y-122144557D01*
X167946000Y-121890586D01*
X167946000Y-124258000D01*
X129234000Y-124258000D01*
X129234000Y-122145735D01*
X129336853Y-122394658D01*
X130077443Y-123136542D01*
X131045567Y-123538542D01*
X132093834Y-123539457D01*
X133062658Y-123139147D01*
X133804542Y-122398557D01*
X133922840Y-122113663D01*
X138975931Y-122113663D01*
X139124493Y-122473212D01*
X139399341Y-122748540D01*
X139758630Y-122897730D01*
X140147663Y-122898069D01*
X140507212Y-122749507D01*
X140625726Y-122631200D01*
X149442206Y-122631200D01*
X149559341Y-122748540D01*
X149918630Y-122897730D01*
X150307663Y-122898069D01*
X150667212Y-122749507D01*
X150785726Y-122631200D01*
X159602206Y-122631200D01*
X159719341Y-122748540D01*
X160078630Y-122897730D01*
X160467663Y-122898069D01*
X160827212Y-122749507D01*
X161102540Y-122474659D01*
X161251730Y-122115370D01*
X161252069Y-121726337D01*
X161103507Y-121366788D01*
X160828659Y-121091460D01*
X160469370Y-120942270D01*
X160080337Y-120941931D01*
X159720788Y-121090493D01*
X159602274Y-121208800D01*
X154381200Y-121208800D01*
X154381200Y-118019794D01*
X154498540Y-117902659D01*
X154647730Y-117543370D01*
X154648069Y-117154337D01*
X154499507Y-116794788D01*
X154224659Y-116519460D01*
X153865370Y-116370270D01*
X153476337Y-116369931D01*
X153116788Y-116518493D01*
X152841460Y-116793341D01*
X152692270Y-117152630D01*
X152691931Y-117541663D01*
X152840493Y-117901212D01*
X152958800Y-118019726D01*
X152958800Y-121208800D01*
X150785794Y-121208800D01*
X150668659Y-121091460D01*
X150309370Y-120942270D01*
X149920337Y-120941931D01*
X149560788Y-121090493D01*
X149442274Y-121208800D01*
X140625794Y-121208800D01*
X140508659Y-121091460D01*
X140149370Y-120942270D01*
X139760337Y-120941931D01*
X139400788Y-121090493D01*
X139125460Y-121365341D01*
X138976270Y-121724630D01*
X138975931Y-122113663D01*
X133922840Y-122113663D01*
X134206542Y-121430433D01*
X134207457Y-120382166D01*
X133807147Y-119413342D01*
X133066557Y-118671458D01*
X132098433Y-118269458D01*
X131050166Y-118268543D01*
X130081342Y-118668853D01*
X129339458Y-119409443D01*
X129234000Y-119663414D01*
X129234000Y-104724200D01*
X137096760Y-104724200D01*
X137096760Y-106603800D01*
X137141038Y-106839117D01*
X137280110Y-107055241D01*
X137473410Y-107187317D01*
X137349728Y-107310783D01*
X137109474Y-107889379D01*
X137108927Y-108515873D01*
X137348171Y-109094887D01*
X137726896Y-109474273D01*
X137349728Y-109850783D01*
X137109474Y-110429379D01*
X137108927Y-111055873D01*
X137348171Y-111634887D01*
X137726896Y-112014273D01*
X137349728Y-112390783D01*
X137109474Y-112969379D01*
X137108927Y-113595873D01*
X137348171Y-114174887D01*
X137790783Y-114618272D01*
X138369379Y-114858526D01*
X138995873Y-114859073D01*
X139574887Y-114619829D01*
X140018272Y-114177217D01*
X140258526Y-113598621D01*
X140259073Y-112972127D01*
X140019829Y-112393113D01*
X139641104Y-112013727D01*
X139986733Y-111668701D01*
X140129335Y-111811553D01*
X140592271Y-112003781D01*
X141093530Y-112004218D01*
X141556800Y-111812799D01*
X141911553Y-111458665D01*
X142103781Y-110995729D01*
X142104218Y-110494470D01*
X141912799Y-110031200D01*
X141558665Y-109676447D01*
X141095729Y-109484219D01*
X140594470Y-109483782D01*
X140131200Y-109675201D01*
X139986461Y-109819687D01*
X139641104Y-109473727D01*
X139895274Y-109220000D01*
X145396214Y-109220000D01*
X145509225Y-109788143D01*
X145831052Y-110269792D01*
X146160617Y-110490000D01*
X145831052Y-110710208D01*
X145509225Y-111191857D01*
X145396214Y-111760000D01*
X145509225Y-112328143D01*
X145831052Y-112809792D01*
X146312701Y-113131619D01*
X146880844Y-113244630D01*
X148775156Y-113244630D01*
X149343299Y-113131619D01*
X149824948Y-112809792D01*
X149901649Y-112695000D01*
X153924000Y-112695000D01*
X154281809Y-112623827D01*
X154585145Y-112421145D01*
X155327290Y-111679000D01*
X157204207Y-111679000D01*
X157287549Y-111762488D01*
X157104759Y-111880110D01*
X156959769Y-112092310D01*
X156908760Y-112344200D01*
X156908760Y-114223800D01*
X156953038Y-114459117D01*
X157092110Y-114675241D01*
X157304310Y-114820231D01*
X157556200Y-114871240D01*
X159435800Y-114871240D01*
X159671117Y-114826962D01*
X159887241Y-114687890D01*
X160032231Y-114475690D01*
X160083240Y-114223800D01*
X160083240Y-112344200D01*
X160038962Y-112108883D01*
X159899890Y-111892759D01*
X159706590Y-111760683D01*
X159830272Y-111637217D01*
X160070526Y-111058621D01*
X160071073Y-110432127D01*
X159831829Y-109853113D01*
X159453104Y-109473727D01*
X159830272Y-109097217D01*
X160070526Y-108518621D01*
X160071073Y-107892127D01*
X159831829Y-107313113D01*
X159453104Y-106933727D01*
X159830272Y-106557217D01*
X160070526Y-105978621D01*
X160071073Y-105352127D01*
X159831829Y-104773113D01*
X159389217Y-104329728D01*
X158810621Y-104089474D01*
X158184127Y-104088927D01*
X157605113Y-104328171D01*
X157161728Y-104770783D01*
X156921474Y-105349379D01*
X156920927Y-105975873D01*
X157160171Y-106554887D01*
X157538896Y-106934273D01*
X157193267Y-107279299D01*
X157050665Y-107136447D01*
X156587729Y-106944219D01*
X156086470Y-106943782D01*
X155623200Y-107135201D01*
X155268447Y-107489335D01*
X155076219Y-107952271D01*
X155075782Y-108453530D01*
X155267201Y-108916800D01*
X155621335Y-109271553D01*
X156084271Y-109463781D01*
X156585530Y-109464218D01*
X157048800Y-109272799D01*
X157193539Y-109128313D01*
X157538896Y-109474273D01*
X157203584Y-109809000D01*
X154940000Y-109809000D01*
X154582191Y-109880173D01*
X154278855Y-110082855D01*
X153536710Y-110825000D01*
X149901649Y-110825000D01*
X149824948Y-110710208D01*
X149495383Y-110490000D01*
X149824948Y-110269792D01*
X150146775Y-109788143D01*
X150259786Y-109220000D01*
X150146775Y-108651857D01*
X149824948Y-108170208D01*
X149519867Y-107966360D01*
X149641180Y-107908878D01*
X150041972Y-107466041D01*
X150089398Y-107273206D01*
X150000762Y-107053000D01*
X148201000Y-107053000D01*
X148201000Y-107073000D01*
X147455000Y-107073000D01*
X147455000Y-107053000D01*
X145655238Y-107053000D01*
X145566602Y-107273206D01*
X145614028Y-107466041D01*
X146014820Y-107908878D01*
X146136133Y-107966360D01*
X145831052Y-108170208D01*
X145509225Y-108651857D01*
X145396214Y-109220000D01*
X139895274Y-109220000D01*
X140018272Y-109097217D01*
X140258526Y-108518621D01*
X140259073Y-107892127D01*
X140019829Y-107313113D01*
X139892451Y-107185512D01*
X140075241Y-107067890D01*
X140220231Y-106855690D01*
X140271240Y-106603800D01*
X140271240Y-106086794D01*
X145566602Y-106086794D01*
X145655238Y-106307000D01*
X147455000Y-106307000D01*
X147455000Y-105195370D01*
X148201000Y-105195370D01*
X148201000Y-106307000D01*
X150000762Y-106307000D01*
X150089398Y-106086794D01*
X150041972Y-105893959D01*
X149641180Y-105451122D01*
X149101430Y-105195370D01*
X148201000Y-105195370D01*
X147455000Y-105195370D01*
X146554570Y-105195370D01*
X146014820Y-105451122D01*
X145614028Y-105893959D01*
X145566602Y-106086794D01*
X140271240Y-106086794D01*
X140271240Y-104724200D01*
X140226962Y-104488883D01*
X140087890Y-104272759D01*
X139875690Y-104127769D01*
X139623800Y-104076760D01*
X137744200Y-104076760D01*
X137508883Y-104121038D01*
X137292759Y-104260110D01*
X137147769Y-104472310D01*
X137096760Y-104724200D01*
X129234000Y-104724200D01*
X129234000Y-100301735D01*
X129336853Y-100550658D01*
X130077443Y-101292542D01*
X131045567Y-101694542D01*
X132093834Y-101695457D01*
X133062658Y-101295147D01*
X133804542Y-100554557D01*
X134206542Y-99586433D01*
X134207457Y-98538166D01*
X134034757Y-98120200D01*
X144462760Y-98120200D01*
X144462760Y-99999800D01*
X144507038Y-100235117D01*
X144646110Y-100451241D01*
X144858310Y-100596231D01*
X145110200Y-100647240D01*
X146989800Y-100647240D01*
X147225117Y-100602962D01*
X147441241Y-100463890D01*
X147557104Y-100294320D01*
X147720144Y-100457360D01*
X147865219Y-100312285D01*
X147973804Y-100542707D01*
X148588116Y-100665651D01*
X149202716Y-100544150D01*
X149206196Y-100542707D01*
X149314782Y-100312284D01*
X148590000Y-99587502D01*
X148575858Y-99601644D01*
X148048356Y-99074142D01*
X148062498Y-99060000D01*
X149117502Y-99060000D01*
X149643333Y-99585831D01*
X149794171Y-99950887D01*
X150236783Y-100394272D01*
X150815379Y-100634526D01*
X151441873Y-100635073D01*
X152020887Y-100395829D01*
X152400273Y-100017104D01*
X152776783Y-100394272D01*
X153355379Y-100634526D01*
X153981873Y-100635073D01*
X154560887Y-100395829D01*
X155004272Y-99953217D01*
X155244526Y-99374621D01*
X155245073Y-98748127D01*
X155005829Y-98169113D01*
X154563217Y-97725728D01*
X153984621Y-97485474D01*
X153358127Y-97484927D01*
X152779113Y-97724171D01*
X152399727Y-98102896D01*
X152054701Y-97757267D01*
X152197553Y-97614665D01*
X152389781Y-97151729D01*
X152390218Y-96650470D01*
X152198799Y-96187200D01*
X151844665Y-95832447D01*
X151381729Y-95640219D01*
X150880470Y-95639782D01*
X150417200Y-95831201D01*
X150062447Y-96185335D01*
X149870219Y-96648271D01*
X149869782Y-97149530D01*
X150061201Y-97612800D01*
X150205687Y-97757539D01*
X149795728Y-98166783D01*
X149643065Y-98534437D01*
X149117502Y-99060000D01*
X148062498Y-99060000D01*
X148048356Y-99045858D01*
X148575858Y-98518356D01*
X148590000Y-98532498D01*
X149314782Y-97807716D01*
X149206196Y-97577293D01*
X148591884Y-97454349D01*
X147977284Y-97575850D01*
X147973804Y-97577293D01*
X147865219Y-97807715D01*
X147720144Y-97662640D01*
X147555742Y-97827042D01*
X147453890Y-97668759D01*
X147241690Y-97523769D01*
X146989800Y-97472760D01*
X145110200Y-97472760D01*
X144874883Y-97517038D01*
X144658759Y-97656110D01*
X144513769Y-97868310D01*
X144462760Y-98120200D01*
X134034757Y-98120200D01*
X133807147Y-97569342D01*
X133066557Y-96827458D01*
X132098433Y-96425458D01*
X131050166Y-96424543D01*
X130081342Y-96824853D01*
X129339458Y-97565443D01*
X129234000Y-97819414D01*
X129234000Y-94690000D01*
X167946000Y-94690000D01*
X167946000Y-97818265D01*
M02*
