G04 #@! TF.FileFunction,Legend,Bot*
%FSLAX46Y46*%
G04 Gerber Fmt 4.6, Leading zero omitted, Abs format (unit mm)*
G04 Created by KiCad (PCBNEW 4.0.6) date Friday, March 31, 2017 'PMt' 06:41:41 PM*
%MOMM*%
%LPD*%
G01*
G04 APERTURE LIST*
%ADD10C,0.100000*%
%ADD11C,0.300000*%
G04 APERTURE END LIST*
D10*
D11*
X156947142Y-122963714D02*
X157018571Y-123035143D01*
X157232857Y-123106571D01*
X157375714Y-123106571D01*
X157589999Y-123035143D01*
X157732857Y-122892286D01*
X157804285Y-122749429D01*
X157875714Y-122463714D01*
X157875714Y-122249429D01*
X157804285Y-121963714D01*
X157732857Y-121820857D01*
X157589999Y-121678000D01*
X157375714Y-121606571D01*
X157232857Y-121606571D01*
X157018571Y-121678000D01*
X156947142Y-121749429D01*
X156089999Y-123106571D02*
X156232857Y-123035143D01*
X156304285Y-122892286D01*
X156304285Y-121606571D01*
X155304285Y-123106571D02*
X155447143Y-123035143D01*
X155518571Y-122963714D01*
X155590000Y-122820857D01*
X155590000Y-122392286D01*
X155518571Y-122249429D01*
X155447143Y-122178000D01*
X155304285Y-122106571D01*
X155090000Y-122106571D01*
X154947143Y-122178000D01*
X154875714Y-122249429D01*
X154804285Y-122392286D01*
X154804285Y-122820857D01*
X154875714Y-122963714D01*
X154947143Y-123035143D01*
X155090000Y-123106571D01*
X155304285Y-123106571D01*
X154304285Y-122106571D02*
X153947142Y-123106571D01*
X153590000Y-122106571D02*
X153947142Y-123106571D01*
X154090000Y-123463714D01*
X154161428Y-123535143D01*
X154304285Y-123606571D01*
X152375714Y-123035143D02*
X152518571Y-123106571D01*
X152804285Y-123106571D01*
X152947143Y-123035143D01*
X153018571Y-122963714D01*
X153090000Y-122820857D01*
X153090000Y-122392286D01*
X153018571Y-122249429D01*
X152947143Y-122178000D01*
X152804285Y-122106571D01*
X152518571Y-122106571D01*
X152375714Y-122178000D01*
X151161429Y-123035143D02*
X151304286Y-123106571D01*
X151590000Y-123106571D01*
X151732857Y-123035143D01*
X151804286Y-122892286D01*
X151804286Y-122320857D01*
X151732857Y-122178000D01*
X151590000Y-122106571D01*
X151304286Y-122106571D01*
X151161429Y-122178000D01*
X151090000Y-122320857D01*
X151090000Y-122463714D01*
X151804286Y-122606571D01*
X149375715Y-123035143D02*
X149161429Y-123106571D01*
X148804286Y-123106571D01*
X148661429Y-123035143D01*
X148590000Y-122963714D01*
X148518572Y-122820857D01*
X148518572Y-122678000D01*
X148590000Y-122535143D01*
X148661429Y-122463714D01*
X148804286Y-122392286D01*
X149090000Y-122320857D01*
X149232858Y-122249429D01*
X149304286Y-122178000D01*
X149375715Y-122035143D01*
X149375715Y-121892286D01*
X149304286Y-121749429D01*
X149232858Y-121678000D01*
X149090000Y-121606571D01*
X148732858Y-121606571D01*
X148518572Y-121678000D01*
X147875715Y-122106571D02*
X147875715Y-123606571D01*
X147875715Y-122178000D02*
X147732858Y-122106571D01*
X147447144Y-122106571D01*
X147304287Y-122178000D01*
X147232858Y-122249429D01*
X147161429Y-122392286D01*
X147161429Y-122820857D01*
X147232858Y-122963714D01*
X147304287Y-123035143D01*
X147447144Y-123106571D01*
X147732858Y-123106571D01*
X147875715Y-123035143D01*
X146518572Y-123106571D02*
X146518572Y-122106571D01*
X146518572Y-122392286D02*
X146447144Y-122249429D01*
X146375715Y-122178000D01*
X146232858Y-122106571D01*
X146090001Y-122106571D01*
X144947144Y-123106571D02*
X144947144Y-122320857D01*
X145018573Y-122178000D01*
X145161430Y-122106571D01*
X145447144Y-122106571D01*
X145590001Y-122178000D01*
X144947144Y-123035143D02*
X145090001Y-123106571D01*
X145447144Y-123106571D01*
X145590001Y-123035143D01*
X145661430Y-122892286D01*
X145661430Y-122749429D01*
X145590001Y-122606571D01*
X145447144Y-122535143D01*
X145090001Y-122535143D01*
X144947144Y-122463714D01*
X143590001Y-123106571D02*
X143590001Y-121606571D01*
X143590001Y-123035143D02*
X143732858Y-123106571D01*
X144018572Y-123106571D01*
X144161430Y-123035143D01*
X144232858Y-122963714D01*
X144304287Y-122820857D01*
X144304287Y-122392286D01*
X144232858Y-122249429D01*
X144161430Y-122178000D01*
X144018572Y-122106571D01*
X143732858Y-122106571D01*
X143590001Y-122178000D01*
X142661429Y-123106571D02*
X142804287Y-123035143D01*
X142875715Y-122892286D01*
X142875715Y-121606571D01*
X142090001Y-123106571D02*
X142090001Y-122106571D01*
X142090001Y-121606571D02*
X142161430Y-121678000D01*
X142090001Y-121749429D01*
X142018573Y-121678000D01*
X142090001Y-121606571D01*
X142090001Y-121749429D01*
X141375715Y-122106571D02*
X141375715Y-123106571D01*
X141375715Y-122249429D02*
X141304287Y-122178000D01*
X141161429Y-122106571D01*
X140947144Y-122106571D01*
X140804287Y-122178000D01*
X140732858Y-122320857D01*
X140732858Y-123106571D01*
X139375715Y-122106571D02*
X139375715Y-123320857D01*
X139447144Y-123463714D01*
X139518572Y-123535143D01*
X139661429Y-123606571D01*
X139875715Y-123606571D01*
X140018572Y-123535143D01*
X139375715Y-123035143D02*
X139518572Y-123106571D01*
X139804286Y-123106571D01*
X139947144Y-123035143D01*
X140018572Y-122963714D01*
X140090001Y-122820857D01*
X140090001Y-122392286D01*
X140018572Y-122249429D01*
X139947144Y-122178000D01*
X139804286Y-122106571D01*
X139518572Y-122106571D01*
X139375715Y-122178000D01*
X163407715Y-101233857D02*
X163907715Y-101233857D01*
X163907715Y-102019571D02*
X163907715Y-100519571D01*
X163193429Y-100519571D01*
X161979144Y-102019571D02*
X161979144Y-101233857D01*
X162050573Y-101091000D01*
X162193430Y-101019571D01*
X162479144Y-101019571D01*
X162622001Y-101091000D01*
X161979144Y-101948143D02*
X162122001Y-102019571D01*
X162479144Y-102019571D01*
X162622001Y-101948143D01*
X162693430Y-101805286D01*
X162693430Y-101662429D01*
X162622001Y-101519571D01*
X162479144Y-101448143D01*
X162122001Y-101448143D01*
X161979144Y-101376714D01*
X161264858Y-101019571D02*
X161264858Y-102019571D01*
X161264858Y-101162429D02*
X161193430Y-101091000D01*
X161050572Y-101019571D01*
X160836287Y-101019571D01*
X160693430Y-101091000D01*
X160622001Y-101233857D01*
X160622001Y-102019571D01*
X158764858Y-102019571D02*
X158764858Y-100519571D01*
X158193430Y-100519571D01*
X158050572Y-100591000D01*
X157979144Y-100662429D01*
X157907715Y-100805286D01*
X157907715Y-101019571D01*
X157979144Y-101162429D01*
X158050572Y-101233857D01*
X158193430Y-101305286D01*
X158764858Y-101305286D01*
X157050572Y-102019571D02*
X157193430Y-101948143D01*
X157264858Y-101876714D01*
X157336287Y-101733857D01*
X157336287Y-101305286D01*
X157264858Y-101162429D01*
X157193430Y-101091000D01*
X157050572Y-101019571D01*
X156836287Y-101019571D01*
X156693430Y-101091000D01*
X156622001Y-101162429D01*
X156550572Y-101305286D01*
X156550572Y-101733857D01*
X156622001Y-101876714D01*
X156693430Y-101948143D01*
X156836287Y-102019571D01*
X157050572Y-102019571D01*
X156050572Y-101019571D02*
X155764858Y-102019571D01*
X155479144Y-101305286D01*
X155193429Y-102019571D01*
X154907715Y-101019571D01*
X153764858Y-101948143D02*
X153907715Y-102019571D01*
X154193429Y-102019571D01*
X154336286Y-101948143D01*
X154407715Y-101805286D01*
X154407715Y-101233857D01*
X154336286Y-101091000D01*
X154193429Y-101019571D01*
X153907715Y-101019571D01*
X153764858Y-101091000D01*
X153693429Y-101233857D01*
X153693429Y-101376714D01*
X154407715Y-101519571D01*
X153050572Y-102019571D02*
X153050572Y-101019571D01*
X153050572Y-101305286D02*
X152979144Y-101162429D01*
X152907715Y-101091000D01*
X152764858Y-101019571D01*
X152622001Y-101019571D01*
X150979144Y-102019571D02*
X150979144Y-100519571D01*
X150622001Y-100519571D01*
X150407716Y-100591000D01*
X150264858Y-100733857D01*
X150193430Y-100876714D01*
X150122001Y-101162429D01*
X150122001Y-101376714D01*
X150193430Y-101662429D01*
X150264858Y-101805286D01*
X150407716Y-101948143D01*
X150622001Y-102019571D01*
X150979144Y-102019571D01*
X149479144Y-102019571D02*
X149479144Y-101019571D01*
X149479144Y-100519571D02*
X149550573Y-100591000D01*
X149479144Y-100662429D01*
X149407716Y-100591000D01*
X149479144Y-100519571D01*
X149479144Y-100662429D01*
X148836287Y-101948143D02*
X148693430Y-102019571D01*
X148407715Y-102019571D01*
X148264858Y-101948143D01*
X148193430Y-101805286D01*
X148193430Y-101733857D01*
X148264858Y-101591000D01*
X148407715Y-101519571D01*
X148622001Y-101519571D01*
X148764858Y-101448143D01*
X148836287Y-101305286D01*
X148836287Y-101233857D01*
X148764858Y-101091000D01*
X148622001Y-101019571D01*
X148407715Y-101019571D01*
X148264858Y-101091000D01*
X147764858Y-101019571D02*
X147193429Y-101019571D01*
X147550572Y-100519571D02*
X147550572Y-101805286D01*
X147479144Y-101948143D01*
X147336286Y-102019571D01*
X147193429Y-102019571D01*
X146693429Y-102019571D02*
X146693429Y-101019571D01*
X146693429Y-101305286D02*
X146622001Y-101162429D01*
X146550572Y-101091000D01*
X146407715Y-101019571D01*
X146264858Y-101019571D01*
X145764858Y-102019571D02*
X145764858Y-101019571D01*
X145764858Y-100519571D02*
X145836287Y-100591000D01*
X145764858Y-100662429D01*
X145693430Y-100591000D01*
X145764858Y-100519571D01*
X145764858Y-100662429D01*
X145050572Y-102019571D02*
X145050572Y-100519571D01*
X145050572Y-101091000D02*
X144907715Y-101019571D01*
X144622001Y-101019571D01*
X144479144Y-101091000D01*
X144407715Y-101162429D01*
X144336286Y-101305286D01*
X144336286Y-101733857D01*
X144407715Y-101876714D01*
X144479144Y-101948143D01*
X144622001Y-102019571D01*
X144907715Y-102019571D01*
X145050572Y-101948143D01*
X143050572Y-101019571D02*
X143050572Y-102019571D01*
X143693429Y-101019571D02*
X143693429Y-101805286D01*
X143622001Y-101948143D01*
X143479143Y-102019571D01*
X143264858Y-102019571D01*
X143122001Y-101948143D01*
X143050572Y-101876714D01*
X142550572Y-101019571D02*
X141979143Y-101019571D01*
X142336286Y-100519571D02*
X142336286Y-101805286D01*
X142264858Y-101948143D01*
X142122000Y-102019571D01*
X141979143Y-102019571D01*
X141479143Y-102019571D02*
X141479143Y-101019571D01*
X141479143Y-100519571D02*
X141550572Y-100591000D01*
X141479143Y-100662429D01*
X141407715Y-100591000D01*
X141479143Y-100519571D01*
X141479143Y-100662429D01*
X140550571Y-102019571D02*
X140693429Y-101948143D01*
X140764857Y-101876714D01*
X140836286Y-101733857D01*
X140836286Y-101305286D01*
X140764857Y-101162429D01*
X140693429Y-101091000D01*
X140550571Y-101019571D01*
X140336286Y-101019571D01*
X140193429Y-101091000D01*
X140122000Y-101162429D01*
X140050571Y-101305286D01*
X140050571Y-101733857D01*
X140122000Y-101876714D01*
X140193429Y-101948143D01*
X140336286Y-102019571D01*
X140550571Y-102019571D01*
X139407714Y-101019571D02*
X139407714Y-102019571D01*
X139407714Y-101162429D02*
X139336286Y-101091000D01*
X139193428Y-101019571D01*
X138979143Y-101019571D01*
X138836286Y-101091000D01*
X138764857Y-101233857D01*
X138764857Y-102019571D01*
X136979143Y-100448143D02*
X138264857Y-102376714D01*
X136693428Y-100519571D02*
X135836285Y-100519571D01*
X136264856Y-102019571D02*
X136264856Y-100519571D01*
X134693428Y-102019571D02*
X134693428Y-101233857D01*
X134764857Y-101091000D01*
X134907714Y-101019571D01*
X135193428Y-101019571D01*
X135336285Y-101091000D01*
X134693428Y-101948143D02*
X134836285Y-102019571D01*
X135193428Y-102019571D01*
X135336285Y-101948143D01*
X135407714Y-101805286D01*
X135407714Y-101662429D01*
X135336285Y-101519571D01*
X135193428Y-101448143D01*
X134836285Y-101448143D01*
X134693428Y-101376714D01*
X133979142Y-101019571D02*
X133979142Y-102519571D01*
X133979142Y-101091000D02*
X133836285Y-101019571D01*
X133550571Y-101019571D01*
X133407714Y-101091000D01*
X133336285Y-101162429D01*
X133264856Y-101305286D01*
X133264856Y-101733857D01*
X133336285Y-101876714D01*
X133407714Y-101948143D01*
X133550571Y-102019571D01*
X133836285Y-102019571D01*
X133979142Y-101948143D01*
X159764856Y-104569571D02*
X160264856Y-103855286D01*
X160621999Y-104569571D02*
X160621999Y-103069571D01*
X160050571Y-103069571D01*
X159907713Y-103141000D01*
X159836285Y-103212429D01*
X159764856Y-103355286D01*
X159764856Y-103569571D01*
X159836285Y-103712429D01*
X159907713Y-103783857D01*
X160050571Y-103855286D01*
X160621999Y-103855286D01*
X158550571Y-104498143D02*
X158693428Y-104569571D01*
X158979142Y-104569571D01*
X159121999Y-104498143D01*
X159193428Y-104355286D01*
X159193428Y-103783857D01*
X159121999Y-103641000D01*
X158979142Y-103569571D01*
X158693428Y-103569571D01*
X158550571Y-103641000D01*
X158479142Y-103783857D01*
X158479142Y-103926714D01*
X159193428Y-104069571D01*
X157979142Y-103569571D02*
X157621999Y-104569571D01*
X157264857Y-103569571D01*
X156693428Y-104569571D02*
X156693428Y-103569571D01*
X156693428Y-103069571D02*
X156764857Y-103141000D01*
X156693428Y-103212429D01*
X156622000Y-103141000D01*
X156693428Y-103069571D01*
X156693428Y-103212429D01*
X156050571Y-104498143D02*
X155907714Y-104569571D01*
X155621999Y-104569571D01*
X155479142Y-104498143D01*
X155407714Y-104355286D01*
X155407714Y-104283857D01*
X155479142Y-104141000D01*
X155621999Y-104069571D01*
X155836285Y-104069571D01*
X155979142Y-103998143D01*
X156050571Y-103855286D01*
X156050571Y-103783857D01*
X155979142Y-103641000D01*
X155836285Y-103569571D01*
X155621999Y-103569571D01*
X155479142Y-103641000D01*
X154764856Y-104569571D02*
X154764856Y-103569571D01*
X154764856Y-103069571D02*
X154836285Y-103141000D01*
X154764856Y-103212429D01*
X154693428Y-103141000D01*
X154764856Y-103069571D01*
X154764856Y-103212429D01*
X153836284Y-104569571D02*
X153979142Y-104498143D01*
X154050570Y-104426714D01*
X154121999Y-104283857D01*
X154121999Y-103855286D01*
X154050570Y-103712429D01*
X153979142Y-103641000D01*
X153836284Y-103569571D01*
X153621999Y-103569571D01*
X153479142Y-103641000D01*
X153407713Y-103712429D01*
X153336284Y-103855286D01*
X153336284Y-104283857D01*
X153407713Y-104426714D01*
X153479142Y-104498143D01*
X153621999Y-104569571D01*
X153836284Y-104569571D01*
X152693427Y-103569571D02*
X152693427Y-104569571D01*
X152693427Y-103712429D02*
X152621999Y-103641000D01*
X152479141Y-103569571D01*
X152264856Y-103569571D01*
X152121999Y-103641000D01*
X152050570Y-103783857D01*
X152050570Y-104569571D01*
X149407713Y-104569571D02*
X150264856Y-104569571D01*
X149836284Y-104569571D02*
X149836284Y-103069571D01*
X149979141Y-103283857D01*
X150121999Y-103426714D01*
X150264856Y-103498143D01*
X147621999Y-103998143D02*
X146479142Y-103998143D01*
X144764856Y-103069571D02*
X143836285Y-103069571D01*
X144336285Y-103641000D01*
X144121999Y-103641000D01*
X143979142Y-103712429D01*
X143907713Y-103783857D01*
X143836285Y-103926714D01*
X143836285Y-104283857D01*
X143907713Y-104426714D01*
X143979142Y-104498143D01*
X144121999Y-104569571D01*
X144550571Y-104569571D01*
X144693428Y-104498143D01*
X144764856Y-104426714D01*
X142122000Y-102998143D02*
X143407714Y-104926714D01*
X141693428Y-103212429D02*
X141621999Y-103141000D01*
X141479142Y-103069571D01*
X141121999Y-103069571D01*
X140979142Y-103141000D01*
X140907713Y-103212429D01*
X140836285Y-103355286D01*
X140836285Y-103498143D01*
X140907713Y-103712429D01*
X141764856Y-104569571D01*
X140836285Y-104569571D01*
X139907714Y-103069571D02*
X139764857Y-103069571D01*
X139622000Y-103141000D01*
X139550571Y-103212429D01*
X139479142Y-103355286D01*
X139407714Y-103641000D01*
X139407714Y-103998143D01*
X139479142Y-104283857D01*
X139550571Y-104426714D01*
X139622000Y-104498143D01*
X139764857Y-104569571D01*
X139907714Y-104569571D01*
X140050571Y-104498143D01*
X140122000Y-104426714D01*
X140193428Y-104283857D01*
X140264857Y-103998143D01*
X140264857Y-103641000D01*
X140193428Y-103355286D01*
X140122000Y-103212429D01*
X140050571Y-103141000D01*
X139907714Y-103069571D01*
X137979143Y-104569571D02*
X138836286Y-104569571D01*
X138407714Y-104569571D02*
X138407714Y-103069571D01*
X138550571Y-103283857D01*
X138693429Y-103426714D01*
X138836286Y-103498143D01*
X137479143Y-103069571D02*
X136479143Y-103069571D01*
X137122000Y-104569571D01*
M02*
