M48
;DRILL file {KiCad 4.0.6} date Friday, March 31, 2017 'PMt' 06:41:50 PM
;FORMAT={-:-/ absolute / inch / decimal}
FMAT,2
INCH,TZ
T1C0.013
T2C0.039
T3C0.040
T4C0.040
T5C0.049
T6C0.157
%
G90
G05
M72
T1
X5.39Y-4.59
X5.51Y-4.8
X5.79Y-4.59
X5.91Y-4.8
X6.05Y-4.62
X6.19Y-4.59
X6.31Y-4.8
T2
X5.82Y-4.2
X5.82Y-4.3
X5.82Y-4.4
T3
X5.46Y-4.46
X6.05Y-3.9
X6.24Y-4.16
T4
X5.46Y-4.16
X5.46Y-4.26
X5.46Y-4.36
X5.75Y-3.9
X5.85Y-3.9
X5.95Y-3.9
X6.24Y-4.26
X6.24Y-4.36
X6.24Y-4.46
T5
X5.545Y-4.36
X5.95Y-3.815
X6.155Y-4.26
T6
X5.18Y-3.9
X5.18Y-4.76
X6.52Y-3.9
X6.52Y-4.75
T0
M30
