G04 #@! TF.FileFunction,Legend,Top*
%FSLAX46Y46*%
G04 Gerber Fmt 4.6, Leading zero omitted, Abs format (unit mm)*
G04 Created by KiCad (PCBNEW 4.0.6) date Friday, March 31, 2017 'PMt' 06:41:41 PM*
%MOMM*%
%LPD*%
G01*
G04 APERTURE LIST*
%ADD10C,0.100000*%
%ADD11C,0.150000*%
%ADD12C,0.127000*%
%ADD13C,0.010000*%
G04 APERTURE END LIST*
D10*
D11*
X146851905Y-117308381D02*
X147423334Y-117308381D01*
X147137619Y-118308381D02*
X147137619Y-117308381D01*
X147709048Y-118022667D02*
X148185239Y-118022667D01*
X147613810Y-118308381D02*
X147947143Y-117308381D01*
X148280477Y-118308381D01*
X149185239Y-118213143D02*
X149137620Y-118260762D01*
X148994763Y-118308381D01*
X148899525Y-118308381D01*
X148756667Y-118260762D01*
X148661429Y-118165524D01*
X148613810Y-118070286D01*
X148566191Y-117879810D01*
X148566191Y-117736952D01*
X148613810Y-117546476D01*
X148661429Y-117451238D01*
X148756667Y-117356000D01*
X148899525Y-117308381D01*
X148994763Y-117308381D01*
X149137620Y-117356000D01*
X149185239Y-117403619D01*
X149613810Y-118308381D02*
X149613810Y-117308381D01*
X149613810Y-117784571D02*
X150185239Y-117784571D01*
X150185239Y-118308381D02*
X150185239Y-117308381D01*
X135660190Y-118308381D02*
X135660190Y-117308381D01*
X136231619Y-118308381D01*
X136231619Y-117308381D01*
X136898285Y-117308381D02*
X137088762Y-117308381D01*
X137184000Y-117356000D01*
X137279238Y-117451238D01*
X137326857Y-117641714D01*
X137326857Y-117975048D01*
X137279238Y-118165524D01*
X137184000Y-118260762D01*
X137088762Y-118308381D01*
X136898285Y-118308381D01*
X136803047Y-118260762D01*
X136707809Y-118165524D01*
X136660190Y-117975048D01*
X136660190Y-117641714D01*
X136707809Y-117451238D01*
X136803047Y-117356000D01*
X136898285Y-117308381D01*
X138374476Y-117308381D02*
X138945905Y-117308381D01*
X138660190Y-118308381D02*
X138660190Y-117308381D01*
X139231619Y-118022667D02*
X139707810Y-118022667D01*
X139136381Y-118308381D02*
X139469714Y-117308381D01*
X139803048Y-118308381D01*
X140707810Y-118213143D02*
X140660191Y-118260762D01*
X140517334Y-118308381D01*
X140422096Y-118308381D01*
X140279238Y-118260762D01*
X140184000Y-118165524D01*
X140136381Y-118070286D01*
X140088762Y-117879810D01*
X140088762Y-117736952D01*
X140136381Y-117546476D01*
X140184000Y-117451238D01*
X140279238Y-117356000D01*
X140422096Y-117308381D01*
X140517334Y-117308381D01*
X140660191Y-117356000D01*
X140707810Y-117403619D01*
X141136381Y-118308381D02*
X141136381Y-117308381D01*
X141136381Y-117784571D02*
X141707810Y-117784571D01*
X141707810Y-118308381D02*
X141707810Y-117308381D01*
X155980190Y-118308381D02*
X155980190Y-117308381D01*
X156551619Y-118308381D01*
X156551619Y-117308381D01*
X157218285Y-117308381D02*
X157408762Y-117308381D01*
X157504000Y-117356000D01*
X157599238Y-117451238D01*
X157646857Y-117641714D01*
X157646857Y-117975048D01*
X157599238Y-118165524D01*
X157504000Y-118260762D01*
X157408762Y-118308381D01*
X157218285Y-118308381D01*
X157123047Y-118260762D01*
X157027809Y-118165524D01*
X156980190Y-117975048D01*
X156980190Y-117641714D01*
X157027809Y-117451238D01*
X157123047Y-117356000D01*
X157218285Y-117308381D01*
X158694476Y-117308381D02*
X159265905Y-117308381D01*
X158980190Y-118308381D02*
X158980190Y-117308381D01*
X159551619Y-118022667D02*
X160027810Y-118022667D01*
X159456381Y-118308381D02*
X159789714Y-117308381D01*
X160123048Y-118308381D01*
X161027810Y-118213143D02*
X160980191Y-118260762D01*
X160837334Y-118308381D01*
X160742096Y-118308381D01*
X160599238Y-118260762D01*
X160504000Y-118165524D01*
X160456381Y-118070286D01*
X160408762Y-117879810D01*
X160408762Y-117736952D01*
X160456381Y-117546476D01*
X160504000Y-117451238D01*
X160599238Y-117356000D01*
X160742096Y-117308381D01*
X160837334Y-117308381D01*
X160980191Y-117356000D01*
X161027810Y-117403619D01*
X161456381Y-118308381D02*
X161456381Y-117308381D01*
X161456381Y-117784571D02*
X162027810Y-117784571D01*
X162027810Y-118308381D02*
X162027810Y-117308381D01*
X156500000Y-119732500D02*
G75*
G03X156500000Y-119732500I-250000J0D01*
G01*
X156850000Y-124557500D02*
X160650000Y-124557500D01*
X155750000Y-122657500D02*
X155750000Y-120307500D01*
X155750000Y-120307500D02*
X156650000Y-120307500D01*
X156250000Y-120307500D02*
X156250000Y-121507500D01*
X156250000Y-121507500D02*
X156250000Y-121507500D01*
X156250000Y-121507500D02*
X156250000Y-120307500D01*
X156250000Y-120307500D02*
X156250000Y-120307500D01*
X156250000Y-120807500D02*
X156250000Y-120807500D01*
X156250000Y-120807500D02*
X155750000Y-120807500D01*
X155750000Y-120807500D02*
X155750000Y-120807500D01*
X155750000Y-120807500D02*
X156250000Y-120807500D01*
X156250000Y-121507500D02*
X156250000Y-121507500D01*
X156250000Y-121507500D02*
X155750000Y-121507500D01*
X155750000Y-121507500D02*
X155750000Y-121507500D01*
X155750000Y-121507500D02*
X156250000Y-121507500D01*
X161750000Y-122657500D02*
X161750000Y-120307500D01*
X161750000Y-120307500D02*
X160850000Y-120307500D01*
X161250000Y-120307500D02*
X161250000Y-121507500D01*
X161250000Y-121507500D02*
X161250000Y-121507500D01*
X161250000Y-121507500D02*
X161250000Y-120307500D01*
X161250000Y-120307500D02*
X161250000Y-120307500D01*
X161250000Y-120807500D02*
X161250000Y-120807500D01*
X161250000Y-120807500D02*
X161750000Y-120807500D01*
X161750000Y-120807500D02*
X161750000Y-120807500D01*
X161750000Y-120807500D02*
X161250000Y-120807500D01*
X161250000Y-121507500D02*
X161250000Y-121507500D01*
X161250000Y-121507500D02*
X161750000Y-121507500D01*
X161750000Y-121507500D02*
X161750000Y-121507500D01*
X161750000Y-121507500D02*
X161250000Y-121507500D01*
D12*
X155956000Y-114571780D02*
X161795460Y-114571780D01*
X155956000Y-104376220D02*
X161795460Y-104376220D01*
X155956000Y-104376220D02*
X155956000Y-114571780D01*
X161795460Y-104376220D02*
X161795460Y-108204000D01*
X161795460Y-108204000D02*
X161795460Y-113284000D01*
X161795460Y-113284000D02*
X161795460Y-114571780D01*
X161795460Y-113284000D02*
X159575500Y-113284000D01*
X159575500Y-113284000D02*
X159575500Y-108204000D01*
X159575500Y-108204000D02*
X161795460Y-108204000D01*
X141224000Y-104376220D02*
X135384540Y-104376220D01*
X141224000Y-114571780D02*
X135384540Y-114571780D01*
X141224000Y-114571780D02*
X141224000Y-104376220D01*
X135384540Y-114571780D02*
X135384540Y-110744000D01*
X135384540Y-110744000D02*
X135384540Y-105664000D01*
X135384540Y-105664000D02*
X135384540Y-104376220D01*
X135384540Y-105664000D02*
X137604500Y-105664000D01*
X137604500Y-105664000D02*
X137604500Y-110744000D01*
X137604500Y-110744000D02*
X135384540Y-110744000D01*
D11*
X149733000Y-114554000D02*
X149733000Y-112649000D01*
X149733000Y-110109000D02*
X149733000Y-110871000D01*
X149733000Y-107696000D02*
X149733000Y-107569000D01*
X149733000Y-107696000D02*
X149733000Y-108331000D01*
X149733000Y-103886000D02*
X149733000Y-105664000D01*
X146050000Y-103886000D02*
X146050000Y-105537000D01*
X145923000Y-108204000D02*
X145923000Y-107569000D01*
X145923000Y-110744000D02*
X145923000Y-110109000D01*
X146050000Y-114554000D02*
X146050000Y-112903000D01*
X150876000Y-107696000D02*
X149733000Y-107696000D01*
X150876000Y-110744000D02*
X149733000Y-110744000D01*
X149733000Y-114554000D02*
X146050000Y-114554000D01*
X146050000Y-103886000D02*
X149733000Y-103886000D01*
X150876000Y-114554000D02*
X149733000Y-114554000D01*
X149733000Y-103886000D02*
X150876000Y-103886000D01*
X150876000Y-109220000D02*
X150876000Y-103886000D01*
X150876000Y-109220000D02*
X150876000Y-114554000D01*
X146340000Y-119732500D02*
G75*
G03X146340000Y-119732500I-250000J0D01*
G01*
X146690000Y-124557500D02*
X150490000Y-124557500D01*
X145590000Y-122657500D02*
X145590000Y-120307500D01*
X145590000Y-120307500D02*
X146490000Y-120307500D01*
X146090000Y-120307500D02*
X146090000Y-121507500D01*
X146090000Y-121507500D02*
X146090000Y-121507500D01*
X146090000Y-121507500D02*
X146090000Y-120307500D01*
X146090000Y-120307500D02*
X146090000Y-120307500D01*
X146090000Y-120807500D02*
X146090000Y-120807500D01*
X146090000Y-120807500D02*
X145590000Y-120807500D01*
X145590000Y-120807500D02*
X145590000Y-120807500D01*
X145590000Y-120807500D02*
X146090000Y-120807500D01*
X146090000Y-121507500D02*
X146090000Y-121507500D01*
X146090000Y-121507500D02*
X145590000Y-121507500D01*
X145590000Y-121507500D02*
X145590000Y-121507500D01*
X145590000Y-121507500D02*
X146090000Y-121507500D01*
X151590000Y-122657500D02*
X151590000Y-120307500D01*
X151590000Y-120307500D02*
X150690000Y-120307500D01*
X151090000Y-120307500D02*
X151090000Y-121507500D01*
X151090000Y-121507500D02*
X151090000Y-121507500D01*
X151090000Y-121507500D02*
X151090000Y-120307500D01*
X151090000Y-120307500D02*
X151090000Y-120307500D01*
X151090000Y-120807500D02*
X151090000Y-120807500D01*
X151090000Y-120807500D02*
X151590000Y-120807500D01*
X151590000Y-120807500D02*
X151590000Y-120807500D01*
X151590000Y-120807500D02*
X151090000Y-120807500D01*
X151090000Y-121507500D02*
X151090000Y-121507500D01*
X151090000Y-121507500D02*
X151590000Y-121507500D01*
X151590000Y-121507500D02*
X151590000Y-121507500D01*
X151590000Y-121507500D02*
X151090000Y-121507500D01*
X136180000Y-119732500D02*
G75*
G03X136180000Y-119732500I-250000J0D01*
G01*
X136530000Y-124557500D02*
X140330000Y-124557500D01*
X135430000Y-122657500D02*
X135430000Y-120307500D01*
X135430000Y-120307500D02*
X136330000Y-120307500D01*
X135930000Y-120307500D02*
X135930000Y-121507500D01*
X135930000Y-121507500D02*
X135930000Y-121507500D01*
X135930000Y-121507500D02*
X135930000Y-120307500D01*
X135930000Y-120307500D02*
X135930000Y-120307500D01*
X135930000Y-120807500D02*
X135930000Y-120807500D01*
X135930000Y-120807500D02*
X135430000Y-120807500D01*
X135430000Y-120807500D02*
X135430000Y-120807500D01*
X135430000Y-120807500D02*
X135930000Y-120807500D01*
X135930000Y-121507500D02*
X135930000Y-121507500D01*
X135930000Y-121507500D02*
X135430000Y-121507500D01*
X135430000Y-121507500D02*
X135430000Y-121507500D01*
X135430000Y-121507500D02*
X135930000Y-121507500D01*
X141430000Y-122657500D02*
X141430000Y-120307500D01*
X141430000Y-120307500D02*
X140530000Y-120307500D01*
X140930000Y-120307500D02*
X140930000Y-121507500D01*
X140930000Y-121507500D02*
X140930000Y-121507500D01*
X140930000Y-121507500D02*
X140930000Y-120307500D01*
X140930000Y-120307500D02*
X140930000Y-120307500D01*
X140930000Y-120807500D02*
X140930000Y-120807500D01*
X140930000Y-120807500D02*
X141430000Y-120807500D01*
X141430000Y-120807500D02*
X141430000Y-120807500D01*
X141430000Y-120807500D02*
X140930000Y-120807500D01*
X140930000Y-121507500D02*
X140930000Y-121507500D01*
X140930000Y-121507500D02*
X141430000Y-121507500D01*
X141430000Y-121507500D02*
X141430000Y-121507500D01*
X141430000Y-121507500D02*
X140930000Y-121507500D01*
D12*
X144762220Y-96520000D02*
X144762220Y-102359460D01*
X154957780Y-96520000D02*
X154957780Y-102359460D01*
X154957780Y-96520000D02*
X144762220Y-96520000D01*
X154957780Y-102359460D02*
X151130000Y-102359460D01*
X151130000Y-102359460D02*
X146050000Y-102359460D01*
X146050000Y-102359460D02*
X144762220Y-102359460D01*
X146050000Y-102359460D02*
X146050000Y-100139500D01*
X146050000Y-100139500D02*
X151130000Y-100139500D01*
X151130000Y-100139500D02*
X151130000Y-102359460D01*
D13*
G36*
X157349241Y-100021184D02*
X157375753Y-100034282D01*
X157408447Y-100057106D01*
X157432275Y-100081996D01*
X157448594Y-100113249D01*
X157458760Y-100155166D01*
X157464128Y-100212044D01*
X157466056Y-100288184D01*
X157466169Y-100320917D01*
X157465839Y-100392656D01*
X157464473Y-100443927D01*
X157461500Y-100479404D01*
X157456351Y-100503763D01*
X157448457Y-100521680D01*
X157440243Y-100533902D01*
X157387813Y-100585905D01*
X157326070Y-100617184D01*
X157259464Y-100626592D01*
X157192442Y-100612980D01*
X157171208Y-100603354D01*
X157120376Y-100576859D01*
X157120376Y-100992052D01*
X157157475Y-100972868D01*
X157206357Y-100958025D01*
X157266439Y-100954222D01*
X157326436Y-100961243D01*
X157371744Y-100977013D01*
X157409325Y-101007047D01*
X157441436Y-101050024D01*
X157443850Y-101054436D01*
X157454033Y-101075221D01*
X157461470Y-101096170D01*
X157466589Y-101121548D01*
X157469819Y-101155618D01*
X157471587Y-101202641D01*
X157472323Y-101266882D01*
X157472456Y-101339176D01*
X157472456Y-101569822D01*
X157334139Y-101569822D01*
X157334139Y-101144533D01*
X157295451Y-101111979D01*
X157255262Y-101085940D01*
X157217203Y-101081205D01*
X157178934Y-101093389D01*
X157158538Y-101105320D01*
X157143358Y-101122313D01*
X157132562Y-101147995D01*
X157125317Y-101185991D01*
X157120792Y-101239926D01*
X157118156Y-101313425D01*
X157117228Y-101362347D01*
X157114089Y-101563535D01*
X157048074Y-101567336D01*
X156982060Y-101571136D01*
X156982060Y-100322650D01*
X157120376Y-100322650D01*
X157123903Y-100392254D01*
X157135785Y-100440569D01*
X157157980Y-100470631D01*
X157192441Y-100485471D01*
X157227258Y-100488436D01*
X157266671Y-100485028D01*
X157292829Y-100471617D01*
X157309186Y-100453896D01*
X157322063Y-100434835D01*
X157329728Y-100413601D01*
X157333139Y-100383849D01*
X157333251Y-100339236D01*
X157332103Y-100301880D01*
X157329468Y-100245604D01*
X157325544Y-100208658D01*
X157318937Y-100185223D01*
X157308251Y-100169480D01*
X157298167Y-100160380D01*
X157256030Y-100140537D01*
X157206160Y-100137332D01*
X157177524Y-100144168D01*
X157149172Y-100168464D01*
X157130391Y-100215728D01*
X157121288Y-100285624D01*
X157120376Y-100322650D01*
X156982060Y-100322650D01*
X156982060Y-100010614D01*
X157051218Y-100010614D01*
X157092740Y-100012256D01*
X157114162Y-100018087D01*
X157120374Y-100029461D01*
X157120376Y-100029798D01*
X157123258Y-100040938D01*
X157135970Y-100039673D01*
X157161243Y-100027433D01*
X157220131Y-100008707D01*
X157286385Y-100006739D01*
X157349241Y-100021184D01*
X157349241Y-100021184D01*
G37*
X157349241Y-100021184D02*
X157375753Y-100034282D01*
X157408447Y-100057106D01*
X157432275Y-100081996D01*
X157448594Y-100113249D01*
X157458760Y-100155166D01*
X157464128Y-100212044D01*
X157466056Y-100288184D01*
X157466169Y-100320917D01*
X157465839Y-100392656D01*
X157464473Y-100443927D01*
X157461500Y-100479404D01*
X157456351Y-100503763D01*
X157448457Y-100521680D01*
X157440243Y-100533902D01*
X157387813Y-100585905D01*
X157326070Y-100617184D01*
X157259464Y-100626592D01*
X157192442Y-100612980D01*
X157171208Y-100603354D01*
X157120376Y-100576859D01*
X157120376Y-100992052D01*
X157157475Y-100972868D01*
X157206357Y-100958025D01*
X157266439Y-100954222D01*
X157326436Y-100961243D01*
X157371744Y-100977013D01*
X157409325Y-101007047D01*
X157441436Y-101050024D01*
X157443850Y-101054436D01*
X157454033Y-101075221D01*
X157461470Y-101096170D01*
X157466589Y-101121548D01*
X157469819Y-101155618D01*
X157471587Y-101202641D01*
X157472323Y-101266882D01*
X157472456Y-101339176D01*
X157472456Y-101569822D01*
X157334139Y-101569822D01*
X157334139Y-101144533D01*
X157295451Y-101111979D01*
X157255262Y-101085940D01*
X157217203Y-101081205D01*
X157178934Y-101093389D01*
X157158538Y-101105320D01*
X157143358Y-101122313D01*
X157132562Y-101147995D01*
X157125317Y-101185991D01*
X157120792Y-101239926D01*
X157118156Y-101313425D01*
X157117228Y-101362347D01*
X157114089Y-101563535D01*
X157048074Y-101567336D01*
X156982060Y-101571136D01*
X156982060Y-100322650D01*
X157120376Y-100322650D01*
X157123903Y-100392254D01*
X157135785Y-100440569D01*
X157157980Y-100470631D01*
X157192441Y-100485471D01*
X157227258Y-100488436D01*
X157266671Y-100485028D01*
X157292829Y-100471617D01*
X157309186Y-100453896D01*
X157322063Y-100434835D01*
X157329728Y-100413601D01*
X157333139Y-100383849D01*
X157333251Y-100339236D01*
X157332103Y-100301880D01*
X157329468Y-100245604D01*
X157325544Y-100208658D01*
X157318937Y-100185223D01*
X157308251Y-100169480D01*
X157298167Y-100160380D01*
X157256030Y-100140537D01*
X157206160Y-100137332D01*
X157177524Y-100144168D01*
X157149172Y-100168464D01*
X157130391Y-100215728D01*
X157121288Y-100285624D01*
X157120376Y-100322650D01*
X156982060Y-100322650D01*
X156982060Y-100010614D01*
X157051218Y-100010614D01*
X157092740Y-100012256D01*
X157114162Y-100018087D01*
X157120374Y-100029461D01*
X157120376Y-100029798D01*
X157123258Y-100040938D01*
X157135970Y-100039673D01*
X157161243Y-100027433D01*
X157220131Y-100008707D01*
X157286385Y-100006739D01*
X157349241Y-100021184D01*
G36*
X157873790Y-100958555D02*
X157932945Y-100974339D01*
X157977977Y-101002948D01*
X158009754Y-101040419D01*
X158019634Y-101056411D01*
X158026927Y-101073163D01*
X158032026Y-101094592D01*
X158035321Y-101124616D01*
X158037203Y-101167154D01*
X158038063Y-101226122D01*
X158038293Y-101305440D01*
X158038297Y-101326484D01*
X158038297Y-101569822D01*
X157977941Y-101569822D01*
X157939443Y-101567126D01*
X157910977Y-101560295D01*
X157903845Y-101556083D01*
X157884348Y-101548813D01*
X157864434Y-101556083D01*
X157831647Y-101565160D01*
X157784022Y-101568813D01*
X157731236Y-101567228D01*
X157682964Y-101560589D01*
X157654782Y-101552072D01*
X157600247Y-101517063D01*
X157566165Y-101468479D01*
X157550843Y-101403882D01*
X157550701Y-101402223D01*
X157552045Y-101373566D01*
X157673644Y-101373566D01*
X157684274Y-101406161D01*
X157701590Y-101424505D01*
X157736348Y-101438379D01*
X157782227Y-101443917D01*
X157829012Y-101441191D01*
X157866486Y-101430274D01*
X157876985Y-101423269D01*
X157895332Y-101390904D01*
X157899980Y-101354111D01*
X157899980Y-101305763D01*
X157830418Y-101305763D01*
X157764333Y-101310850D01*
X157714236Y-101325263D01*
X157683071Y-101347729D01*
X157673644Y-101373566D01*
X157552045Y-101373566D01*
X157554013Y-101331647D01*
X157577290Y-101275845D01*
X157621052Y-101233647D01*
X157627101Y-101229808D01*
X157653093Y-101217309D01*
X157685265Y-101209740D01*
X157730240Y-101206061D01*
X157783669Y-101205216D01*
X157899980Y-101205169D01*
X157899980Y-101156411D01*
X157895047Y-101118581D01*
X157882457Y-101093236D01*
X157880983Y-101091887D01*
X157852966Y-101080800D01*
X157810674Y-101076503D01*
X157763936Y-101078615D01*
X157722582Y-101086756D01*
X157698043Y-101098965D01*
X157684747Y-101108746D01*
X157670706Y-101110613D01*
X157651329Y-101102600D01*
X157622024Y-101082739D01*
X157578197Y-101049063D01*
X157574175Y-101045909D01*
X157576236Y-101034236D01*
X157593432Y-101014822D01*
X157619567Y-100993248D01*
X157648448Y-100975096D01*
X157657522Y-100970809D01*
X157690620Y-100962256D01*
X157739120Y-100956155D01*
X157793305Y-100953708D01*
X157795839Y-100953703D01*
X157873790Y-100958555D01*
X157873790Y-100958555D01*
G37*
X157873790Y-100958555D02*
X157932945Y-100974339D01*
X157977977Y-101002948D01*
X158009754Y-101040419D01*
X158019634Y-101056411D01*
X158026927Y-101073163D01*
X158032026Y-101094592D01*
X158035321Y-101124616D01*
X158037203Y-101167154D01*
X158038063Y-101226122D01*
X158038293Y-101305440D01*
X158038297Y-101326484D01*
X158038297Y-101569822D01*
X157977941Y-101569822D01*
X157939443Y-101567126D01*
X157910977Y-101560295D01*
X157903845Y-101556083D01*
X157884348Y-101548813D01*
X157864434Y-101556083D01*
X157831647Y-101565160D01*
X157784022Y-101568813D01*
X157731236Y-101567228D01*
X157682964Y-101560589D01*
X157654782Y-101552072D01*
X157600247Y-101517063D01*
X157566165Y-101468479D01*
X157550843Y-101403882D01*
X157550701Y-101402223D01*
X157552045Y-101373566D01*
X157673644Y-101373566D01*
X157684274Y-101406161D01*
X157701590Y-101424505D01*
X157736348Y-101438379D01*
X157782227Y-101443917D01*
X157829012Y-101441191D01*
X157866486Y-101430274D01*
X157876985Y-101423269D01*
X157895332Y-101390904D01*
X157899980Y-101354111D01*
X157899980Y-101305763D01*
X157830418Y-101305763D01*
X157764333Y-101310850D01*
X157714236Y-101325263D01*
X157683071Y-101347729D01*
X157673644Y-101373566D01*
X157552045Y-101373566D01*
X157554013Y-101331647D01*
X157577290Y-101275845D01*
X157621052Y-101233647D01*
X157627101Y-101229808D01*
X157653093Y-101217309D01*
X157685265Y-101209740D01*
X157730240Y-101206061D01*
X157783669Y-101205216D01*
X157899980Y-101205169D01*
X157899980Y-101156411D01*
X157895047Y-101118581D01*
X157882457Y-101093236D01*
X157880983Y-101091887D01*
X157852966Y-101080800D01*
X157810674Y-101076503D01*
X157763936Y-101078615D01*
X157722582Y-101086756D01*
X157698043Y-101098965D01*
X157684747Y-101108746D01*
X157670706Y-101110613D01*
X157651329Y-101102600D01*
X157622024Y-101082739D01*
X157578197Y-101049063D01*
X157574175Y-101045909D01*
X157576236Y-101034236D01*
X157593432Y-101014822D01*
X157619567Y-100993248D01*
X157648448Y-100975096D01*
X157657522Y-100970809D01*
X157690620Y-100962256D01*
X157739120Y-100956155D01*
X157793305Y-100953708D01*
X157795839Y-100953703D01*
X157873790Y-100958555D01*
G36*
X158264644Y-100955020D02*
X158283461Y-100960660D01*
X158289527Y-100973053D01*
X158289782Y-100978647D01*
X158290871Y-100994230D01*
X158298368Y-100996676D01*
X158318619Y-100985993D01*
X158330649Y-100978694D01*
X158368600Y-100963063D01*
X158413928Y-100955334D01*
X158461456Y-100954740D01*
X158506005Y-100960513D01*
X158542398Y-100971884D01*
X158565457Y-100988088D01*
X158570004Y-101008355D01*
X158567709Y-101013843D01*
X158550980Y-101036626D01*
X158525037Y-101064647D01*
X158520345Y-101069177D01*
X158495617Y-101090005D01*
X158474282Y-101096735D01*
X158444445Y-101092038D01*
X158432492Y-101088917D01*
X158395295Y-101081421D01*
X158369141Y-101084792D01*
X158347054Y-101096681D01*
X158326822Y-101112635D01*
X158311921Y-101132700D01*
X158301566Y-101160702D01*
X158294971Y-101200467D01*
X158291351Y-101255823D01*
X158289922Y-101330594D01*
X158289782Y-101375740D01*
X158289782Y-101569822D01*
X158164040Y-101569822D01*
X158164040Y-100953683D01*
X158226911Y-100953683D01*
X158264644Y-100955020D01*
X158264644Y-100955020D01*
G37*
X158264644Y-100955020D02*
X158283461Y-100960660D01*
X158289527Y-100973053D01*
X158289782Y-100978647D01*
X158290871Y-100994230D01*
X158298368Y-100996676D01*
X158318619Y-100985993D01*
X158330649Y-100978694D01*
X158368600Y-100963063D01*
X158413928Y-100955334D01*
X158461456Y-100954740D01*
X158506005Y-100960513D01*
X158542398Y-100971884D01*
X158565457Y-100988088D01*
X158570004Y-101008355D01*
X158567709Y-101013843D01*
X158550980Y-101036626D01*
X158525037Y-101064647D01*
X158520345Y-101069177D01*
X158495617Y-101090005D01*
X158474282Y-101096735D01*
X158444445Y-101092038D01*
X158432492Y-101088917D01*
X158395295Y-101081421D01*
X158369141Y-101084792D01*
X158347054Y-101096681D01*
X158326822Y-101112635D01*
X158311921Y-101132700D01*
X158301566Y-101160702D01*
X158294971Y-101200467D01*
X158291351Y-101255823D01*
X158289922Y-101330594D01*
X158289782Y-101375740D01*
X158289782Y-101569822D01*
X158164040Y-101569822D01*
X158164040Y-100953683D01*
X158226911Y-100953683D01*
X158264644Y-100955020D01*
G36*
X159056812Y-101569822D02*
X158987654Y-101569822D01*
X158947512Y-101568645D01*
X158926606Y-101563772D01*
X158919078Y-101553186D01*
X158918495Y-101546029D01*
X158917226Y-101531676D01*
X158909221Y-101528923D01*
X158888185Y-101537771D01*
X158871827Y-101546029D01*
X158809023Y-101565597D01*
X158740752Y-101566729D01*
X158685248Y-101552135D01*
X158633562Y-101516877D01*
X158594162Y-101464835D01*
X158572587Y-101403450D01*
X158572038Y-101400018D01*
X158568833Y-101362571D01*
X158567239Y-101308813D01*
X158567367Y-101268155D01*
X158704721Y-101268155D01*
X158707903Y-101322194D01*
X158715141Y-101366735D01*
X158724940Y-101391888D01*
X158762011Y-101426260D01*
X158806026Y-101438582D01*
X158851416Y-101428618D01*
X158890203Y-101398895D01*
X158904892Y-101378905D01*
X158913481Y-101355050D01*
X158917504Y-101320230D01*
X158918495Y-101267930D01*
X158916722Y-101216139D01*
X158912037Y-101170634D01*
X158905397Y-101140181D01*
X158904290Y-101137452D01*
X158877509Y-101105000D01*
X158838421Y-101087183D01*
X158794685Y-101084306D01*
X158753962Y-101096674D01*
X158723913Y-101124593D01*
X158720796Y-101130148D01*
X158711039Y-101164022D01*
X158705723Y-101212728D01*
X158704721Y-101268155D01*
X158567367Y-101268155D01*
X158567432Y-101247540D01*
X158568336Y-101214563D01*
X158574486Y-101132981D01*
X158587267Y-101071730D01*
X158608529Y-101026449D01*
X158640122Y-100992779D01*
X158670793Y-100973014D01*
X158713646Y-100959120D01*
X158766944Y-100954354D01*
X158821520Y-100958236D01*
X158868208Y-100970282D01*
X158892876Y-100984693D01*
X158918495Y-101007878D01*
X158918495Y-100714773D01*
X159056812Y-100714773D01*
X159056812Y-101569822D01*
X159056812Y-101569822D01*
G37*
X159056812Y-101569822D02*
X158987654Y-101569822D01*
X158947512Y-101568645D01*
X158926606Y-101563772D01*
X158919078Y-101553186D01*
X158918495Y-101546029D01*
X158917226Y-101531676D01*
X158909221Y-101528923D01*
X158888185Y-101537771D01*
X158871827Y-101546029D01*
X158809023Y-101565597D01*
X158740752Y-101566729D01*
X158685248Y-101552135D01*
X158633562Y-101516877D01*
X158594162Y-101464835D01*
X158572587Y-101403450D01*
X158572038Y-101400018D01*
X158568833Y-101362571D01*
X158567239Y-101308813D01*
X158567367Y-101268155D01*
X158704721Y-101268155D01*
X158707903Y-101322194D01*
X158715141Y-101366735D01*
X158724940Y-101391888D01*
X158762011Y-101426260D01*
X158806026Y-101438582D01*
X158851416Y-101428618D01*
X158890203Y-101398895D01*
X158904892Y-101378905D01*
X158913481Y-101355050D01*
X158917504Y-101320230D01*
X158918495Y-101267930D01*
X158916722Y-101216139D01*
X158912037Y-101170634D01*
X158905397Y-101140181D01*
X158904290Y-101137452D01*
X158877509Y-101105000D01*
X158838421Y-101087183D01*
X158794685Y-101084306D01*
X158753962Y-101096674D01*
X158723913Y-101124593D01*
X158720796Y-101130148D01*
X158711039Y-101164022D01*
X158705723Y-101212728D01*
X158704721Y-101268155D01*
X158567367Y-101268155D01*
X158567432Y-101247540D01*
X158568336Y-101214563D01*
X158574486Y-101132981D01*
X158587267Y-101071730D01*
X158608529Y-101026449D01*
X158640122Y-100992779D01*
X158670793Y-100973014D01*
X158713646Y-100959120D01*
X158766944Y-100954354D01*
X158821520Y-100958236D01*
X158868208Y-100970282D01*
X158892876Y-100984693D01*
X158918495Y-101007878D01*
X158918495Y-100714773D01*
X159056812Y-100714773D01*
X159056812Y-101569822D01*
G36*
X159539524Y-100956237D02*
X159589255Y-100959971D01*
X159719291Y-101349773D01*
X159739678Y-101280614D01*
X159751946Y-101237874D01*
X159768085Y-101180115D01*
X159785512Y-101116625D01*
X159794726Y-101082570D01*
X159829388Y-100953683D01*
X159972391Y-100953683D01*
X159929646Y-101088857D01*
X159908596Y-101155342D01*
X159883167Y-101235539D01*
X159856610Y-101319193D01*
X159832902Y-101393782D01*
X159778902Y-101563535D01*
X159720598Y-101567328D01*
X159662295Y-101571122D01*
X159630679Y-101466734D01*
X159611182Y-101401889D01*
X159589904Y-101330400D01*
X159571308Y-101267263D01*
X159570574Y-101264750D01*
X159556684Y-101221969D01*
X159544429Y-101192779D01*
X159535846Y-101181741D01*
X159534082Y-101183018D01*
X159527891Y-101200130D01*
X159516128Y-101236787D01*
X159500225Y-101288378D01*
X159481614Y-101350294D01*
X159471543Y-101384352D01*
X159417007Y-101569822D01*
X159301264Y-101569822D01*
X159208737Y-101277471D01*
X159182744Y-101195462D01*
X159159066Y-101120987D01*
X159138820Y-101057544D01*
X159123126Y-101008632D01*
X159113102Y-100977749D01*
X159110055Y-100968726D01*
X159112467Y-100959487D01*
X159131408Y-100955441D01*
X159170823Y-100955846D01*
X159176993Y-100956152D01*
X159250086Y-100959971D01*
X159297957Y-101136010D01*
X159315553Y-101200211D01*
X159331277Y-101256649D01*
X159343746Y-101300422D01*
X159351574Y-101326630D01*
X159353020Y-101330903D01*
X159359014Y-101325990D01*
X159371101Y-101300532D01*
X159387893Y-101257997D01*
X159408003Y-101201850D01*
X159425003Y-101151130D01*
X159489794Y-100952504D01*
X159539524Y-100956237D01*
X159539524Y-100956237D01*
G37*
X159539524Y-100956237D02*
X159589255Y-100959971D01*
X159719291Y-101349773D01*
X159739678Y-101280614D01*
X159751946Y-101237874D01*
X159768085Y-101180115D01*
X159785512Y-101116625D01*
X159794726Y-101082570D01*
X159829388Y-100953683D01*
X159972391Y-100953683D01*
X159929646Y-101088857D01*
X159908596Y-101155342D01*
X159883167Y-101235539D01*
X159856610Y-101319193D01*
X159832902Y-101393782D01*
X159778902Y-101563535D01*
X159720598Y-101567328D01*
X159662295Y-101571122D01*
X159630679Y-101466734D01*
X159611182Y-101401889D01*
X159589904Y-101330400D01*
X159571308Y-101267263D01*
X159570574Y-101264750D01*
X159556684Y-101221969D01*
X159544429Y-101192779D01*
X159535846Y-101181741D01*
X159534082Y-101183018D01*
X159527891Y-101200130D01*
X159516128Y-101236787D01*
X159500225Y-101288378D01*
X159481614Y-101350294D01*
X159471543Y-101384352D01*
X159417007Y-101569822D01*
X159301264Y-101569822D01*
X159208737Y-101277471D01*
X159182744Y-101195462D01*
X159159066Y-101120987D01*
X159138820Y-101057544D01*
X159123126Y-101008632D01*
X159113102Y-100977749D01*
X159110055Y-100968726D01*
X159112467Y-100959487D01*
X159131408Y-100955441D01*
X159170823Y-100955846D01*
X159176993Y-100956152D01*
X159250086Y-100959971D01*
X159297957Y-101136010D01*
X159315553Y-101200211D01*
X159331277Y-101256649D01*
X159343746Y-101300422D01*
X159351574Y-101326630D01*
X159353020Y-101330903D01*
X159359014Y-101325990D01*
X159371101Y-101300532D01*
X159387893Y-101257997D01*
X159408003Y-101201850D01*
X159425003Y-101151130D01*
X159489794Y-100952504D01*
X159539524Y-100956237D01*
G36*
X160296411Y-100957417D02*
X160349411Y-100970290D01*
X160364731Y-100977110D01*
X160394428Y-100994974D01*
X160417220Y-101015093D01*
X160434083Y-101040962D01*
X160445998Y-101076073D01*
X160453942Y-101123920D01*
X160458894Y-101187996D01*
X160461831Y-101271794D01*
X160462947Y-101327768D01*
X160467052Y-101569822D01*
X160396932Y-101569822D01*
X160354393Y-101568038D01*
X160332476Y-101561942D01*
X160326812Y-101551706D01*
X160323821Y-101540637D01*
X160310451Y-101542754D01*
X160292233Y-101551629D01*
X160246624Y-101565233D01*
X160188007Y-101568899D01*
X160126354Y-101562903D01*
X160071638Y-101547521D01*
X160066730Y-101545386D01*
X160016723Y-101510255D01*
X159983756Y-101461419D01*
X159968587Y-101404333D01*
X159969746Y-101383824D01*
X160093508Y-101383824D01*
X160104413Y-101411425D01*
X160136745Y-101431204D01*
X160188910Y-101441819D01*
X160216787Y-101443228D01*
X160263247Y-101439620D01*
X160294129Y-101425597D01*
X160301664Y-101418931D01*
X160322076Y-101382666D01*
X160326812Y-101349773D01*
X160326812Y-101305763D01*
X160265513Y-101305763D01*
X160194256Y-101309395D01*
X160144276Y-101320818D01*
X160112696Y-101340824D01*
X160105626Y-101349743D01*
X160093508Y-101383824D01*
X159969746Y-101383824D01*
X159971971Y-101344456D01*
X159994663Y-101287244D01*
X160025624Y-101248580D01*
X160044376Y-101231864D01*
X160062733Y-101220878D01*
X160086619Y-101214180D01*
X160121957Y-101210326D01*
X160174669Y-101207873D01*
X160195577Y-101207168D01*
X160326812Y-101202879D01*
X160326620Y-101163158D01*
X160321537Y-101121405D01*
X160303162Y-101096158D01*
X160266039Y-101080030D01*
X160265043Y-101079742D01*
X160212410Y-101073400D01*
X160160906Y-101081684D01*
X160122630Y-101101827D01*
X160107272Y-101111773D01*
X160090730Y-101110397D01*
X160065275Y-101095987D01*
X160050328Y-101085817D01*
X160021091Y-101064088D01*
X160002980Y-101047800D01*
X160000074Y-101043137D01*
X160012040Y-101019005D01*
X160047396Y-100990185D01*
X160062753Y-100980461D01*
X160106901Y-100963714D01*
X160166398Y-100954227D01*
X160232487Y-100952095D01*
X160296411Y-100957417D01*
X160296411Y-100957417D01*
G37*
X160296411Y-100957417D02*
X160349411Y-100970290D01*
X160364731Y-100977110D01*
X160394428Y-100994974D01*
X160417220Y-101015093D01*
X160434083Y-101040962D01*
X160445998Y-101076073D01*
X160453942Y-101123920D01*
X160458894Y-101187996D01*
X160461831Y-101271794D01*
X160462947Y-101327768D01*
X160467052Y-101569822D01*
X160396932Y-101569822D01*
X160354393Y-101568038D01*
X160332476Y-101561942D01*
X160326812Y-101551706D01*
X160323821Y-101540637D01*
X160310451Y-101542754D01*
X160292233Y-101551629D01*
X160246624Y-101565233D01*
X160188007Y-101568899D01*
X160126354Y-101562903D01*
X160071638Y-101547521D01*
X160066730Y-101545386D01*
X160016723Y-101510255D01*
X159983756Y-101461419D01*
X159968587Y-101404333D01*
X159969746Y-101383824D01*
X160093508Y-101383824D01*
X160104413Y-101411425D01*
X160136745Y-101431204D01*
X160188910Y-101441819D01*
X160216787Y-101443228D01*
X160263247Y-101439620D01*
X160294129Y-101425597D01*
X160301664Y-101418931D01*
X160322076Y-101382666D01*
X160326812Y-101349773D01*
X160326812Y-101305763D01*
X160265513Y-101305763D01*
X160194256Y-101309395D01*
X160144276Y-101320818D01*
X160112696Y-101340824D01*
X160105626Y-101349743D01*
X160093508Y-101383824D01*
X159969746Y-101383824D01*
X159971971Y-101344456D01*
X159994663Y-101287244D01*
X160025624Y-101248580D01*
X160044376Y-101231864D01*
X160062733Y-101220878D01*
X160086619Y-101214180D01*
X160121957Y-101210326D01*
X160174669Y-101207873D01*
X160195577Y-101207168D01*
X160326812Y-101202879D01*
X160326620Y-101163158D01*
X160321537Y-101121405D01*
X160303162Y-101096158D01*
X160266039Y-101080030D01*
X160265043Y-101079742D01*
X160212410Y-101073400D01*
X160160906Y-101081684D01*
X160122630Y-101101827D01*
X160107272Y-101111773D01*
X160090730Y-101110397D01*
X160065275Y-101095987D01*
X160050328Y-101085817D01*
X160021091Y-101064088D01*
X160002980Y-101047800D01*
X160000074Y-101043137D01*
X160012040Y-101019005D01*
X160047396Y-100990185D01*
X160062753Y-100980461D01*
X160106901Y-100963714D01*
X160166398Y-100954227D01*
X160232487Y-100952095D01*
X160296411Y-100957417D01*
G36*
X160893255Y-100953486D02*
X160941595Y-100963015D01*
X160969114Y-100977125D01*
X160998064Y-101000568D01*
X160956876Y-101052571D01*
X160931482Y-101084064D01*
X160914238Y-101099428D01*
X160897102Y-101101776D01*
X160872027Y-101094217D01*
X160860257Y-101089941D01*
X160812270Y-101083631D01*
X160768324Y-101097156D01*
X160736060Y-101127710D01*
X160730819Y-101137452D01*
X160725112Y-101163258D01*
X160720706Y-101210817D01*
X160717811Y-101276758D01*
X160716631Y-101357710D01*
X160716614Y-101369226D01*
X160716614Y-101569822D01*
X160578297Y-101569822D01*
X160578297Y-100953683D01*
X160647456Y-100953683D01*
X160687333Y-100954725D01*
X160708107Y-100959358D01*
X160715789Y-100969849D01*
X160716614Y-100979745D01*
X160716614Y-101005806D01*
X160749745Y-100979745D01*
X160787735Y-100961965D01*
X160838770Y-100953174D01*
X160893255Y-100953486D01*
X160893255Y-100953486D01*
G37*
X160893255Y-100953486D02*
X160941595Y-100963015D01*
X160969114Y-100977125D01*
X160998064Y-101000568D01*
X160956876Y-101052571D01*
X160931482Y-101084064D01*
X160914238Y-101099428D01*
X160897102Y-101101776D01*
X160872027Y-101094217D01*
X160860257Y-101089941D01*
X160812270Y-101083631D01*
X160768324Y-101097156D01*
X160736060Y-101127710D01*
X160730819Y-101137452D01*
X160725112Y-101163258D01*
X160720706Y-101210817D01*
X160717811Y-101276758D01*
X160716631Y-101357710D01*
X160716614Y-101369226D01*
X160716614Y-101569822D01*
X160578297Y-101569822D01*
X160578297Y-100953683D01*
X160647456Y-100953683D01*
X160687333Y-100954725D01*
X160708107Y-100959358D01*
X160715789Y-100969849D01*
X160716614Y-100979745D01*
X160716614Y-101005806D01*
X160749745Y-100979745D01*
X160787735Y-100961965D01*
X160838770Y-100953174D01*
X160893255Y-100953486D01*
G36*
X161290581Y-100956970D02*
X161350685Y-100972597D01*
X161401021Y-101004848D01*
X161425393Y-101028940D01*
X161465345Y-101085895D01*
X161488242Y-101151965D01*
X161496108Y-101233182D01*
X161496148Y-101239748D01*
X161496218Y-101305763D01*
X161116264Y-101305763D01*
X161124363Y-101340342D01*
X161138987Y-101371659D01*
X161164581Y-101404291D01*
X161169935Y-101409500D01*
X161215943Y-101437694D01*
X161268410Y-101442475D01*
X161328803Y-101423926D01*
X161339040Y-101418931D01*
X161370439Y-101403745D01*
X161391470Y-101395094D01*
X161395139Y-101394293D01*
X161407948Y-101402063D01*
X161432378Y-101421072D01*
X161444779Y-101431460D01*
X161470476Y-101455321D01*
X161478915Y-101471077D01*
X161473058Y-101485571D01*
X161469928Y-101489534D01*
X161448725Y-101506879D01*
X161413738Y-101527959D01*
X161389337Y-101540265D01*
X161320072Y-101561946D01*
X161243388Y-101568971D01*
X161170765Y-101560647D01*
X161150426Y-101554686D01*
X161087476Y-101520952D01*
X161040815Y-101469045D01*
X161010173Y-101398459D01*
X160995282Y-101308692D01*
X160993647Y-101261753D01*
X160998421Y-101193413D01*
X161118990Y-101193413D01*
X161130652Y-101198465D01*
X161161998Y-101202429D01*
X161207571Y-101204768D01*
X161238446Y-101205169D01*
X161293981Y-101204783D01*
X161329033Y-101202975D01*
X161348262Y-101198773D01*
X161356330Y-101191203D01*
X161357901Y-101180218D01*
X161347121Y-101146381D01*
X161319980Y-101112940D01*
X161284277Y-101087272D01*
X161248560Y-101076772D01*
X161200048Y-101086086D01*
X161158053Y-101113013D01*
X161128936Y-101151827D01*
X161118990Y-101193413D01*
X160998421Y-101193413D01*
X161000599Y-101162236D01*
X161022055Y-101082949D01*
X161058470Y-101023263D01*
X161110297Y-100982549D01*
X161177990Y-100960179D01*
X161214662Y-100955871D01*
X161290581Y-100956970D01*
X161290581Y-100956970D01*
G37*
X161290581Y-100956970D02*
X161350685Y-100972597D01*
X161401021Y-101004848D01*
X161425393Y-101028940D01*
X161465345Y-101085895D01*
X161488242Y-101151965D01*
X161496108Y-101233182D01*
X161496148Y-101239748D01*
X161496218Y-101305763D01*
X161116264Y-101305763D01*
X161124363Y-101340342D01*
X161138987Y-101371659D01*
X161164581Y-101404291D01*
X161169935Y-101409500D01*
X161215943Y-101437694D01*
X161268410Y-101442475D01*
X161328803Y-101423926D01*
X161339040Y-101418931D01*
X161370439Y-101403745D01*
X161391470Y-101395094D01*
X161395139Y-101394293D01*
X161407948Y-101402063D01*
X161432378Y-101421072D01*
X161444779Y-101431460D01*
X161470476Y-101455321D01*
X161478915Y-101471077D01*
X161473058Y-101485571D01*
X161469928Y-101489534D01*
X161448725Y-101506879D01*
X161413738Y-101527959D01*
X161389337Y-101540265D01*
X161320072Y-101561946D01*
X161243388Y-101568971D01*
X161170765Y-101560647D01*
X161150426Y-101554686D01*
X161087476Y-101520952D01*
X161040815Y-101469045D01*
X161010173Y-101398459D01*
X160995282Y-101308692D01*
X160993647Y-101261753D01*
X160998421Y-101193413D01*
X161118990Y-101193413D01*
X161130652Y-101198465D01*
X161161998Y-101202429D01*
X161207571Y-101204768D01*
X161238446Y-101205169D01*
X161293981Y-101204783D01*
X161329033Y-101202975D01*
X161348262Y-101198773D01*
X161356330Y-101191203D01*
X161357901Y-101180218D01*
X161347121Y-101146381D01*
X161319980Y-101112940D01*
X161284277Y-101087272D01*
X161248560Y-101076772D01*
X161200048Y-101086086D01*
X161158053Y-101113013D01*
X161128936Y-101151827D01*
X161118990Y-101193413D01*
X160998421Y-101193413D01*
X161000599Y-101162236D01*
X161022055Y-101082949D01*
X161058470Y-101023263D01*
X161110297Y-100982549D01*
X161177990Y-100960179D01*
X161214662Y-100955871D01*
X161290581Y-100956970D01*
G36*
X156719739Y-100017148D02*
X156785521Y-100046231D01*
X156835460Y-100094793D01*
X156869626Y-100162908D01*
X156888093Y-100250651D01*
X156889417Y-100264351D01*
X156890454Y-100360939D01*
X156877007Y-100445602D01*
X156849892Y-100514221D01*
X156835373Y-100536294D01*
X156784799Y-100583011D01*
X156720391Y-100613268D01*
X156648334Y-100625824D01*
X156574815Y-100619439D01*
X156518928Y-100599772D01*
X156470868Y-100566629D01*
X156431588Y-100523175D01*
X156430908Y-100522158D01*
X156414956Y-100495338D01*
X156404590Y-100468368D01*
X156398312Y-100434332D01*
X156394627Y-100386310D01*
X156393003Y-100346931D01*
X156392328Y-100311219D01*
X156518045Y-100311219D01*
X156519274Y-100346770D01*
X156523734Y-100394094D01*
X156531603Y-100424465D01*
X156545793Y-100446072D01*
X156559083Y-100458694D01*
X156606198Y-100485122D01*
X156655495Y-100488653D01*
X156701407Y-100469639D01*
X156724362Y-100448331D01*
X156740904Y-100426859D01*
X156750579Y-100406313D01*
X156754826Y-100379574D01*
X156755080Y-100339523D01*
X156753772Y-100302638D01*
X156750957Y-100249947D01*
X156746495Y-100215772D01*
X156738452Y-100193480D01*
X156724897Y-100176442D01*
X156714155Y-100166703D01*
X156669223Y-100141123D01*
X156620751Y-100139847D01*
X156580106Y-100154999D01*
X156545433Y-100186642D01*
X156524776Y-100238620D01*
X156518045Y-100311219D01*
X156392328Y-100311219D01*
X156391521Y-100268621D01*
X156394052Y-100210056D01*
X156401638Y-100166007D01*
X156415319Y-100131248D01*
X156436135Y-100100551D01*
X156443853Y-100091436D01*
X156492111Y-100046021D01*
X156543872Y-100019493D01*
X156607172Y-100008379D01*
X156638039Y-100007471D01*
X156719739Y-100017148D01*
X156719739Y-100017148D01*
G37*
X156719739Y-100017148D02*
X156785521Y-100046231D01*
X156835460Y-100094793D01*
X156869626Y-100162908D01*
X156888093Y-100250651D01*
X156889417Y-100264351D01*
X156890454Y-100360939D01*
X156877007Y-100445602D01*
X156849892Y-100514221D01*
X156835373Y-100536294D01*
X156784799Y-100583011D01*
X156720391Y-100613268D01*
X156648334Y-100625824D01*
X156574815Y-100619439D01*
X156518928Y-100599772D01*
X156470868Y-100566629D01*
X156431588Y-100523175D01*
X156430908Y-100522158D01*
X156414956Y-100495338D01*
X156404590Y-100468368D01*
X156398312Y-100434332D01*
X156394627Y-100386310D01*
X156393003Y-100346931D01*
X156392328Y-100311219D01*
X156518045Y-100311219D01*
X156519274Y-100346770D01*
X156523734Y-100394094D01*
X156531603Y-100424465D01*
X156545793Y-100446072D01*
X156559083Y-100458694D01*
X156606198Y-100485122D01*
X156655495Y-100488653D01*
X156701407Y-100469639D01*
X156724362Y-100448331D01*
X156740904Y-100426859D01*
X156750579Y-100406313D01*
X156754826Y-100379574D01*
X156755080Y-100339523D01*
X156753772Y-100302638D01*
X156750957Y-100249947D01*
X156746495Y-100215772D01*
X156738452Y-100193480D01*
X156724897Y-100176442D01*
X156714155Y-100166703D01*
X156669223Y-100141123D01*
X156620751Y-100139847D01*
X156580106Y-100154999D01*
X156545433Y-100186642D01*
X156524776Y-100238620D01*
X156518045Y-100311219D01*
X156392328Y-100311219D01*
X156391521Y-100268621D01*
X156394052Y-100210056D01*
X156401638Y-100166007D01*
X156415319Y-100131248D01*
X156436135Y-100100551D01*
X156443853Y-100091436D01*
X156492111Y-100046021D01*
X156543872Y-100019493D01*
X156607172Y-100008379D01*
X156638039Y-100007471D01*
X156719739Y-100017148D01*
G36*
X157901301Y-100024614D02*
X157913832Y-100030514D01*
X157957201Y-100062283D01*
X157998210Y-100108646D01*
X158028832Y-100159696D01*
X158037541Y-100183166D01*
X158045488Y-100225091D01*
X158050226Y-100275757D01*
X158050801Y-100296679D01*
X158050871Y-100362693D01*
X157670917Y-100362693D01*
X157679017Y-100397273D01*
X157698896Y-100438170D01*
X157733653Y-100473514D01*
X157775002Y-100496282D01*
X157801351Y-100501010D01*
X157837084Y-100495273D01*
X157879718Y-100480882D01*
X157894201Y-100474262D01*
X157947760Y-100447513D01*
X157993467Y-100482376D01*
X158019842Y-100505955D01*
X158033876Y-100525417D01*
X158034586Y-100531129D01*
X158022049Y-100544973D01*
X157994572Y-100566012D01*
X157969634Y-100582425D01*
X157902336Y-100611930D01*
X157826890Y-100625284D01*
X157752112Y-100621812D01*
X157692505Y-100603663D01*
X157631059Y-100564784D01*
X157587392Y-100513595D01*
X157560074Y-100447367D01*
X157547678Y-100363371D01*
X157546579Y-100324936D01*
X157550978Y-100236861D01*
X157551518Y-100234299D01*
X157677418Y-100234299D01*
X157680885Y-100242558D01*
X157695137Y-100247113D01*
X157724530Y-100249065D01*
X157773425Y-100249517D01*
X157792252Y-100249525D01*
X157849533Y-100248843D01*
X157885859Y-100246364D01*
X157905396Y-100241443D01*
X157912310Y-100233434D01*
X157912555Y-100230862D01*
X157904664Y-100210423D01*
X157884915Y-100181789D01*
X157876425Y-100171763D01*
X157844906Y-100143408D01*
X157812051Y-100132259D01*
X157794349Y-100131327D01*
X157746461Y-100142981D01*
X157706301Y-100174285D01*
X157680827Y-100219752D01*
X157680375Y-100221233D01*
X157677418Y-100234299D01*
X157551518Y-100234299D01*
X157565608Y-100167510D01*
X157591962Y-100112025D01*
X157624193Y-100072639D01*
X157683783Y-100029931D01*
X157753832Y-100007109D01*
X157828339Y-100005046D01*
X157901301Y-100024614D01*
X157901301Y-100024614D01*
G37*
X157901301Y-100024614D02*
X157913832Y-100030514D01*
X157957201Y-100062283D01*
X157998210Y-100108646D01*
X158028832Y-100159696D01*
X158037541Y-100183166D01*
X158045488Y-100225091D01*
X158050226Y-100275757D01*
X158050801Y-100296679D01*
X158050871Y-100362693D01*
X157670917Y-100362693D01*
X157679017Y-100397273D01*
X157698896Y-100438170D01*
X157733653Y-100473514D01*
X157775002Y-100496282D01*
X157801351Y-100501010D01*
X157837084Y-100495273D01*
X157879718Y-100480882D01*
X157894201Y-100474262D01*
X157947760Y-100447513D01*
X157993467Y-100482376D01*
X158019842Y-100505955D01*
X158033876Y-100525417D01*
X158034586Y-100531129D01*
X158022049Y-100544973D01*
X157994572Y-100566012D01*
X157969634Y-100582425D01*
X157902336Y-100611930D01*
X157826890Y-100625284D01*
X157752112Y-100621812D01*
X157692505Y-100603663D01*
X157631059Y-100564784D01*
X157587392Y-100513595D01*
X157560074Y-100447367D01*
X157547678Y-100363371D01*
X157546579Y-100324936D01*
X157550978Y-100236861D01*
X157551518Y-100234299D01*
X157677418Y-100234299D01*
X157680885Y-100242558D01*
X157695137Y-100247113D01*
X157724530Y-100249065D01*
X157773425Y-100249517D01*
X157792252Y-100249525D01*
X157849533Y-100248843D01*
X157885859Y-100246364D01*
X157905396Y-100241443D01*
X157912310Y-100233434D01*
X157912555Y-100230862D01*
X157904664Y-100210423D01*
X157884915Y-100181789D01*
X157876425Y-100171763D01*
X157844906Y-100143408D01*
X157812051Y-100132259D01*
X157794349Y-100131327D01*
X157746461Y-100142981D01*
X157706301Y-100174285D01*
X157680827Y-100219752D01*
X157680375Y-100221233D01*
X157677418Y-100234299D01*
X157551518Y-100234299D01*
X157565608Y-100167510D01*
X157591962Y-100112025D01*
X157624193Y-100072639D01*
X157683783Y-100029931D01*
X157753832Y-100007109D01*
X157828339Y-100005046D01*
X157901301Y-100024614D01*
G36*
X159272017Y-100008452D02*
X159319634Y-100017482D01*
X159369034Y-100036370D01*
X159374312Y-100038777D01*
X159411774Y-100058476D01*
X159437717Y-100076781D01*
X159446103Y-100088508D01*
X159438117Y-100107632D01*
X159418720Y-100135850D01*
X159410110Y-100146384D01*
X159374628Y-100187847D01*
X159328885Y-100160858D01*
X159285350Y-100142878D01*
X159235050Y-100133267D01*
X159186812Y-100132660D01*
X159149467Y-100141691D01*
X159140505Y-100147327D01*
X159123437Y-100173171D01*
X159121363Y-100202941D01*
X159134134Y-100226197D01*
X159141688Y-100230708D01*
X159164325Y-100236309D01*
X159204115Y-100242892D01*
X159253166Y-100249183D01*
X159262215Y-100250170D01*
X159340996Y-100263798D01*
X159398136Y-100286946D01*
X159436030Y-100321752D01*
X159457079Y-100370354D01*
X159463635Y-100429718D01*
X159454577Y-100497198D01*
X159425164Y-100550188D01*
X159375278Y-100588783D01*
X159304800Y-100613081D01*
X159226565Y-100622667D01*
X159162766Y-100622552D01*
X159111016Y-100613845D01*
X159075673Y-100601825D01*
X159031017Y-100580880D01*
X158989747Y-100556574D01*
X158975079Y-100545876D01*
X158937357Y-100515084D01*
X158982852Y-100469049D01*
X159028347Y-100423013D01*
X159080072Y-100457243D01*
X159131952Y-100482952D01*
X159187351Y-100496399D01*
X159240605Y-100497818D01*
X159286049Y-100487443D01*
X159318016Y-100465507D01*
X159328338Y-100446998D01*
X159326789Y-100417314D01*
X159301140Y-100394615D01*
X159251460Y-100378940D01*
X159197031Y-100371695D01*
X159113264Y-100357873D01*
X159051033Y-100331796D01*
X159009507Y-100292699D01*
X158987853Y-100239820D01*
X158984853Y-100177126D01*
X158999671Y-100111642D01*
X159033454Y-100062144D01*
X159086505Y-100028408D01*
X159159126Y-100010207D01*
X159212928Y-100006639D01*
X159272017Y-100008452D01*
X159272017Y-100008452D01*
G37*
X159272017Y-100008452D02*
X159319634Y-100017482D01*
X159369034Y-100036370D01*
X159374312Y-100038777D01*
X159411774Y-100058476D01*
X159437717Y-100076781D01*
X159446103Y-100088508D01*
X159438117Y-100107632D01*
X159418720Y-100135850D01*
X159410110Y-100146384D01*
X159374628Y-100187847D01*
X159328885Y-100160858D01*
X159285350Y-100142878D01*
X159235050Y-100133267D01*
X159186812Y-100132660D01*
X159149467Y-100141691D01*
X159140505Y-100147327D01*
X159123437Y-100173171D01*
X159121363Y-100202941D01*
X159134134Y-100226197D01*
X159141688Y-100230708D01*
X159164325Y-100236309D01*
X159204115Y-100242892D01*
X159253166Y-100249183D01*
X159262215Y-100250170D01*
X159340996Y-100263798D01*
X159398136Y-100286946D01*
X159436030Y-100321752D01*
X159457079Y-100370354D01*
X159463635Y-100429718D01*
X159454577Y-100497198D01*
X159425164Y-100550188D01*
X159375278Y-100588783D01*
X159304800Y-100613081D01*
X159226565Y-100622667D01*
X159162766Y-100622552D01*
X159111016Y-100613845D01*
X159075673Y-100601825D01*
X159031017Y-100580880D01*
X158989747Y-100556574D01*
X158975079Y-100545876D01*
X158937357Y-100515084D01*
X158982852Y-100469049D01*
X159028347Y-100423013D01*
X159080072Y-100457243D01*
X159131952Y-100482952D01*
X159187351Y-100496399D01*
X159240605Y-100497818D01*
X159286049Y-100487443D01*
X159318016Y-100465507D01*
X159328338Y-100446998D01*
X159326789Y-100417314D01*
X159301140Y-100394615D01*
X159251460Y-100378940D01*
X159197031Y-100371695D01*
X159113264Y-100357873D01*
X159051033Y-100331796D01*
X159009507Y-100292699D01*
X158987853Y-100239820D01*
X158984853Y-100177126D01*
X158999671Y-100111642D01*
X159033454Y-100062144D01*
X159086505Y-100028408D01*
X159159126Y-100010207D01*
X159212928Y-100006639D01*
X159272017Y-100008452D01*
G36*
X159868762Y-100018055D02*
X159932363Y-100052692D01*
X159982123Y-100107372D01*
X160005568Y-100151842D01*
X160015634Y-100191121D01*
X160022156Y-100247116D01*
X160024951Y-100311621D01*
X160023836Y-100376429D01*
X160018626Y-100433334D01*
X160012541Y-100463727D01*
X159992014Y-100505306D01*
X159956463Y-100549468D01*
X159913619Y-100588087D01*
X159871211Y-100613034D01*
X159870177Y-100613430D01*
X159817553Y-100624331D01*
X159755188Y-100624601D01*
X159695924Y-100614676D01*
X159673040Y-100606722D01*
X159614102Y-100573300D01*
X159571890Y-100529511D01*
X159544156Y-100471538D01*
X159528651Y-100395565D01*
X159525143Y-100355771D01*
X159525590Y-100305766D01*
X159660376Y-100305766D01*
X159664917Y-100378732D01*
X159677986Y-100434334D01*
X159698756Y-100469861D01*
X159713552Y-100480020D01*
X159751464Y-100487104D01*
X159796527Y-100485007D01*
X159835487Y-100474812D01*
X159845704Y-100469204D01*
X159872659Y-100436538D01*
X159890451Y-100386545D01*
X159898024Y-100325705D01*
X159894325Y-100260497D01*
X159886057Y-100221253D01*
X159862320Y-100175805D01*
X159824849Y-100147396D01*
X159779720Y-100137573D01*
X159733011Y-100147887D01*
X159697132Y-100173112D01*
X159678277Y-100193925D01*
X159667272Y-100214439D01*
X159662026Y-100242203D01*
X159660449Y-100284762D01*
X159660376Y-100305766D01*
X159525590Y-100305766D01*
X159526094Y-100249580D01*
X159543388Y-100162501D01*
X159577029Y-100094530D01*
X159627018Y-100045664D01*
X159693356Y-100015899D01*
X159707601Y-100012448D01*
X159793210Y-100004345D01*
X159868762Y-100018055D01*
X159868762Y-100018055D01*
G37*
X159868762Y-100018055D02*
X159932363Y-100052692D01*
X159982123Y-100107372D01*
X160005568Y-100151842D01*
X160015634Y-100191121D01*
X160022156Y-100247116D01*
X160024951Y-100311621D01*
X160023836Y-100376429D01*
X160018626Y-100433334D01*
X160012541Y-100463727D01*
X159992014Y-100505306D01*
X159956463Y-100549468D01*
X159913619Y-100588087D01*
X159871211Y-100613034D01*
X159870177Y-100613430D01*
X159817553Y-100624331D01*
X159755188Y-100624601D01*
X159695924Y-100614676D01*
X159673040Y-100606722D01*
X159614102Y-100573300D01*
X159571890Y-100529511D01*
X159544156Y-100471538D01*
X159528651Y-100395565D01*
X159525143Y-100355771D01*
X159525590Y-100305766D01*
X159660376Y-100305766D01*
X159664917Y-100378732D01*
X159677986Y-100434334D01*
X159698756Y-100469861D01*
X159713552Y-100480020D01*
X159751464Y-100487104D01*
X159796527Y-100485007D01*
X159835487Y-100474812D01*
X159845704Y-100469204D01*
X159872659Y-100436538D01*
X159890451Y-100386545D01*
X159898024Y-100325705D01*
X159894325Y-100260497D01*
X159886057Y-100221253D01*
X159862320Y-100175805D01*
X159824849Y-100147396D01*
X159779720Y-100137573D01*
X159733011Y-100147887D01*
X159697132Y-100173112D01*
X159678277Y-100193925D01*
X159667272Y-100214439D01*
X159662026Y-100242203D01*
X159660449Y-100284762D01*
X159660376Y-100305766D01*
X159525590Y-100305766D01*
X159526094Y-100249580D01*
X159543388Y-100162501D01*
X159577029Y-100094530D01*
X159627018Y-100045664D01*
X159693356Y-100015899D01*
X159707601Y-100012448D01*
X159793210Y-100004345D01*
X159868762Y-100018055D01*
G36*
X160251367Y-100206342D02*
X160252555Y-100298563D01*
X160256897Y-100368610D01*
X160265558Y-100419381D01*
X160279704Y-100453772D01*
X160300500Y-100474679D01*
X160329110Y-100485000D01*
X160364535Y-100487636D01*
X160401636Y-100484682D01*
X160429818Y-100473889D01*
X160450243Y-100452360D01*
X160464079Y-100417199D01*
X160472491Y-100365510D01*
X160476643Y-100294394D01*
X160477703Y-100206342D01*
X160477703Y-100010614D01*
X160616020Y-100010614D01*
X160616020Y-100614179D01*
X160546862Y-100614179D01*
X160505170Y-100612489D01*
X160483701Y-100606556D01*
X160477703Y-100595293D01*
X160474091Y-100585261D01*
X160459714Y-100587383D01*
X160430736Y-100601580D01*
X160364319Y-100623480D01*
X160293875Y-100621928D01*
X160226377Y-100598147D01*
X160194233Y-100579362D01*
X160169715Y-100559022D01*
X160151804Y-100533573D01*
X160139479Y-100499458D01*
X160131723Y-100453121D01*
X160127516Y-100391007D01*
X160125840Y-100309561D01*
X160125624Y-100246578D01*
X160125624Y-100010614D01*
X160251367Y-100010614D01*
X160251367Y-100206342D01*
X160251367Y-100206342D01*
G37*
X160251367Y-100206342D02*
X160252555Y-100298563D01*
X160256897Y-100368610D01*
X160265558Y-100419381D01*
X160279704Y-100453772D01*
X160300500Y-100474679D01*
X160329110Y-100485000D01*
X160364535Y-100487636D01*
X160401636Y-100484682D01*
X160429818Y-100473889D01*
X160450243Y-100452360D01*
X160464079Y-100417199D01*
X160472491Y-100365510D01*
X160476643Y-100294394D01*
X160477703Y-100206342D01*
X160477703Y-100010614D01*
X160616020Y-100010614D01*
X160616020Y-100614179D01*
X160546862Y-100614179D01*
X160505170Y-100612489D01*
X160483701Y-100606556D01*
X160477703Y-100595293D01*
X160474091Y-100585261D01*
X160459714Y-100587383D01*
X160430736Y-100601580D01*
X160364319Y-100623480D01*
X160293875Y-100621928D01*
X160226377Y-100598147D01*
X160194233Y-100579362D01*
X160169715Y-100559022D01*
X160151804Y-100533573D01*
X160139479Y-100499458D01*
X160131723Y-100453121D01*
X160127516Y-100391007D01*
X160125840Y-100309561D01*
X160125624Y-100246578D01*
X160125624Y-100010614D01*
X160251367Y-100010614D01*
X160251367Y-100206342D01*
G36*
X161475226Y-100015880D02*
X161548080Y-100046830D01*
X161571027Y-100061895D01*
X161600354Y-100085048D01*
X161618764Y-100103253D01*
X161621961Y-100109183D01*
X161612935Y-100122340D01*
X161589837Y-100144667D01*
X161571344Y-100160250D01*
X161520728Y-100200926D01*
X161480760Y-100167295D01*
X161449874Y-100145584D01*
X161419759Y-100138090D01*
X161385292Y-100139920D01*
X161330561Y-100153528D01*
X161292886Y-100181772D01*
X161269991Y-100227433D01*
X161259597Y-100293289D01*
X161259595Y-100293331D01*
X161260494Y-100366939D01*
X161274463Y-100420946D01*
X161302328Y-100457716D01*
X161321325Y-100470168D01*
X161371776Y-100485673D01*
X161425663Y-100485683D01*
X161472546Y-100470638D01*
X161483644Y-100463287D01*
X161511476Y-100444511D01*
X161533236Y-100441434D01*
X161556704Y-100455409D01*
X161582649Y-100480510D01*
X161623716Y-100522880D01*
X161578121Y-100560464D01*
X161507674Y-100602882D01*
X161428233Y-100623785D01*
X161345215Y-100622272D01*
X161290694Y-100608411D01*
X161226970Y-100574135D01*
X161176005Y-100520212D01*
X161152851Y-100482149D01*
X161134099Y-100427536D01*
X161124715Y-100358369D01*
X161124643Y-100283407D01*
X161133824Y-100211409D01*
X161152199Y-100151137D01*
X161155093Y-100144958D01*
X161197952Y-100084351D01*
X161255979Y-100040224D01*
X161324591Y-100013493D01*
X161399201Y-100005073D01*
X161475226Y-100015880D01*
X161475226Y-100015880D01*
G37*
X161475226Y-100015880D02*
X161548080Y-100046830D01*
X161571027Y-100061895D01*
X161600354Y-100085048D01*
X161618764Y-100103253D01*
X161621961Y-100109183D01*
X161612935Y-100122340D01*
X161589837Y-100144667D01*
X161571344Y-100160250D01*
X161520728Y-100200926D01*
X161480760Y-100167295D01*
X161449874Y-100145584D01*
X161419759Y-100138090D01*
X161385292Y-100139920D01*
X161330561Y-100153528D01*
X161292886Y-100181772D01*
X161269991Y-100227433D01*
X161259597Y-100293289D01*
X161259595Y-100293331D01*
X161260494Y-100366939D01*
X161274463Y-100420946D01*
X161302328Y-100457716D01*
X161321325Y-100470168D01*
X161371776Y-100485673D01*
X161425663Y-100485683D01*
X161472546Y-100470638D01*
X161483644Y-100463287D01*
X161511476Y-100444511D01*
X161533236Y-100441434D01*
X161556704Y-100455409D01*
X161582649Y-100480510D01*
X161623716Y-100522880D01*
X161578121Y-100560464D01*
X161507674Y-100602882D01*
X161428233Y-100623785D01*
X161345215Y-100622272D01*
X161290694Y-100608411D01*
X161226970Y-100574135D01*
X161176005Y-100520212D01*
X161152851Y-100482149D01*
X161134099Y-100427536D01*
X161124715Y-100358369D01*
X161124643Y-100283407D01*
X161133824Y-100211409D01*
X161152199Y-100151137D01*
X161155093Y-100144958D01*
X161197952Y-100084351D01*
X161255979Y-100040224D01*
X161324591Y-100013493D01*
X161399201Y-100005073D01*
X161475226Y-100015880D01*
G36*
X161935898Y-100008457D02*
X161968096Y-100016279D01*
X162029825Y-100044921D01*
X162082610Y-100088667D01*
X162119141Y-100141117D01*
X162124160Y-100152893D01*
X162131045Y-100183740D01*
X162135864Y-100229371D01*
X162137505Y-100275492D01*
X162137505Y-100362693D01*
X161955178Y-100362693D01*
X161879979Y-100362978D01*
X161827003Y-100364704D01*
X161793325Y-100369181D01*
X161776020Y-100377720D01*
X161772163Y-100391630D01*
X161778829Y-100412222D01*
X161790770Y-100436315D01*
X161824080Y-100476525D01*
X161870368Y-100496558D01*
X161926944Y-100495905D01*
X161991031Y-100474101D01*
X162046417Y-100447193D01*
X162092375Y-100483532D01*
X162138333Y-100519872D01*
X162095096Y-100559819D01*
X162037374Y-100597563D01*
X161966386Y-100620320D01*
X161890029Y-100626688D01*
X161816199Y-100615268D01*
X161804287Y-100611393D01*
X161739399Y-100577506D01*
X161691130Y-100526986D01*
X161658465Y-100458325D01*
X161640385Y-100370014D01*
X161640175Y-100368121D01*
X161638556Y-100271878D01*
X161645100Y-100237542D01*
X161772852Y-100237542D01*
X161784584Y-100242822D01*
X161816438Y-100246867D01*
X161863397Y-100249176D01*
X161893154Y-100249525D01*
X161948648Y-100249306D01*
X161983346Y-100247916D01*
X162001601Y-100244251D01*
X162007766Y-100237210D01*
X162006195Y-100225690D01*
X162004878Y-100221233D01*
X161982382Y-100179355D01*
X161947003Y-100145604D01*
X161915780Y-100130773D01*
X161874301Y-100131668D01*
X161832269Y-100150164D01*
X161797012Y-100180786D01*
X161775854Y-100218062D01*
X161772852Y-100237542D01*
X161645100Y-100237542D01*
X161654690Y-100187229D01*
X161686698Y-100116191D01*
X161732701Y-100060779D01*
X161790821Y-100023009D01*
X161859180Y-100004896D01*
X161935898Y-100008457D01*
X161935898Y-100008457D01*
G37*
X161935898Y-100008457D02*
X161968096Y-100016279D01*
X162029825Y-100044921D01*
X162082610Y-100088667D01*
X162119141Y-100141117D01*
X162124160Y-100152893D01*
X162131045Y-100183740D01*
X162135864Y-100229371D01*
X162137505Y-100275492D01*
X162137505Y-100362693D01*
X161955178Y-100362693D01*
X161879979Y-100362978D01*
X161827003Y-100364704D01*
X161793325Y-100369181D01*
X161776020Y-100377720D01*
X161772163Y-100391630D01*
X161778829Y-100412222D01*
X161790770Y-100436315D01*
X161824080Y-100476525D01*
X161870368Y-100496558D01*
X161926944Y-100495905D01*
X161991031Y-100474101D01*
X162046417Y-100447193D01*
X162092375Y-100483532D01*
X162138333Y-100519872D01*
X162095096Y-100559819D01*
X162037374Y-100597563D01*
X161966386Y-100620320D01*
X161890029Y-100626688D01*
X161816199Y-100615268D01*
X161804287Y-100611393D01*
X161739399Y-100577506D01*
X161691130Y-100526986D01*
X161658465Y-100458325D01*
X161640385Y-100370014D01*
X161640175Y-100368121D01*
X161638556Y-100271878D01*
X161645100Y-100237542D01*
X161772852Y-100237542D01*
X161784584Y-100242822D01*
X161816438Y-100246867D01*
X161863397Y-100249176D01*
X161893154Y-100249525D01*
X161948648Y-100249306D01*
X161983346Y-100247916D01*
X162001601Y-100244251D01*
X162007766Y-100237210D01*
X162006195Y-100225690D01*
X162004878Y-100221233D01*
X161982382Y-100179355D01*
X161947003Y-100145604D01*
X161915780Y-100130773D01*
X161874301Y-100131668D01*
X161832269Y-100150164D01*
X161797012Y-100180786D01*
X161775854Y-100218062D01*
X161772852Y-100237542D01*
X161645100Y-100237542D01*
X161654690Y-100187229D01*
X161686698Y-100116191D01*
X161732701Y-100060779D01*
X161790821Y-100023009D01*
X161859180Y-100004896D01*
X161935898Y-100008457D01*
G36*
X158503988Y-100021002D02*
X158535283Y-100035950D01*
X158565591Y-100057541D01*
X158588682Y-100082391D01*
X158605500Y-100114087D01*
X158616994Y-100156214D01*
X158624109Y-100212358D01*
X158627793Y-100286106D01*
X158628992Y-100381044D01*
X158629011Y-100390985D01*
X158629287Y-100614179D01*
X158490970Y-100614179D01*
X158490970Y-100408418D01*
X158490872Y-100332189D01*
X158490191Y-100276939D01*
X158488349Y-100238501D01*
X158484767Y-100212706D01*
X158478868Y-100195384D01*
X158470073Y-100182368D01*
X158457820Y-100169507D01*
X158414953Y-100141873D01*
X158368157Y-100136745D01*
X158323576Y-100154217D01*
X158308072Y-100167221D01*
X158296690Y-100179447D01*
X158288519Y-100192540D01*
X158283026Y-100210615D01*
X158279680Y-100237787D01*
X158277949Y-100278170D01*
X158277303Y-100335879D01*
X158277208Y-100406132D01*
X158277208Y-100614179D01*
X158138891Y-100614179D01*
X158138891Y-100010614D01*
X158208050Y-100010614D01*
X158249572Y-100012256D01*
X158270994Y-100018087D01*
X158277205Y-100029461D01*
X158277208Y-100029798D01*
X158280090Y-100040938D01*
X158292801Y-100039674D01*
X158318074Y-100027434D01*
X158375395Y-100009424D01*
X158440963Y-100007421D01*
X158503988Y-100021002D01*
X158503988Y-100021002D01*
G37*
X158503988Y-100021002D02*
X158535283Y-100035950D01*
X158565591Y-100057541D01*
X158588682Y-100082391D01*
X158605500Y-100114087D01*
X158616994Y-100156214D01*
X158624109Y-100212358D01*
X158627793Y-100286106D01*
X158628992Y-100381044D01*
X158629011Y-100390985D01*
X158629287Y-100614179D01*
X158490970Y-100614179D01*
X158490970Y-100408418D01*
X158490872Y-100332189D01*
X158490191Y-100276939D01*
X158488349Y-100238501D01*
X158484767Y-100212706D01*
X158478868Y-100195384D01*
X158470073Y-100182368D01*
X158457820Y-100169507D01*
X158414953Y-100141873D01*
X158368157Y-100136745D01*
X158323576Y-100154217D01*
X158308072Y-100167221D01*
X158296690Y-100179447D01*
X158288519Y-100192540D01*
X158283026Y-100210615D01*
X158279680Y-100237787D01*
X158277949Y-100278170D01*
X158277303Y-100335879D01*
X158277208Y-100406132D01*
X158277208Y-100614179D01*
X158138891Y-100614179D01*
X158138891Y-100010614D01*
X158208050Y-100010614D01*
X158249572Y-100012256D01*
X158270994Y-100018087D01*
X158277205Y-100029461D01*
X158277208Y-100029798D01*
X158280090Y-100040938D01*
X158292801Y-100039674D01*
X158318074Y-100027434D01*
X158375395Y-100009424D01*
X158440963Y-100007421D01*
X158503988Y-100021002D01*
G36*
X161057460Y-100010030D02*
X161100711Y-100023245D01*
X161128558Y-100039941D01*
X161137629Y-100053145D01*
X161135132Y-100068797D01*
X161118931Y-100093385D01*
X161105232Y-100110800D01*
X161076992Y-100142283D01*
X161055775Y-100155529D01*
X161037688Y-100154664D01*
X160984035Y-100141010D01*
X160944630Y-100141630D01*
X160912632Y-100157104D01*
X160901890Y-100166161D01*
X160867505Y-100198027D01*
X160867505Y-100614179D01*
X160729188Y-100614179D01*
X160729188Y-100010614D01*
X160798347Y-100010614D01*
X160839869Y-100012256D01*
X160861291Y-100018087D01*
X160867502Y-100029461D01*
X160867505Y-100029798D01*
X160870439Y-100041713D01*
X160883704Y-100040159D01*
X160902084Y-100031563D01*
X160940046Y-100015568D01*
X160970872Y-100005945D01*
X161010536Y-100003478D01*
X161057460Y-100010030D01*
X161057460Y-100010030D01*
G37*
X161057460Y-100010030D02*
X161100711Y-100023245D01*
X161128558Y-100039941D01*
X161137629Y-100053145D01*
X161135132Y-100068797D01*
X161118931Y-100093385D01*
X161105232Y-100110800D01*
X161076992Y-100142283D01*
X161055775Y-100155529D01*
X161037688Y-100154664D01*
X160984035Y-100141010D01*
X160944630Y-100141630D01*
X160912632Y-100157104D01*
X160901890Y-100166161D01*
X160867505Y-100198027D01*
X160867505Y-100614179D01*
X160729188Y-100614179D01*
X160729188Y-100010614D01*
X160798347Y-100010614D01*
X160839869Y-100012256D01*
X160861291Y-100018087D01*
X160867502Y-100029461D01*
X160867505Y-100029798D01*
X160870439Y-100041713D01*
X160883704Y-100040159D01*
X160902084Y-100031563D01*
X160940046Y-100015568D01*
X160970872Y-100005945D01*
X161010536Y-100003478D01*
X161057460Y-100010030D01*
G36*
X159634964Y-95842018D02*
X159691812Y-96143570D01*
X160111338Y-96316512D01*
X160362984Y-96145395D01*
X160433458Y-96097750D01*
X160497163Y-96055210D01*
X160551126Y-96019715D01*
X160592373Y-95993210D01*
X160617934Y-95977636D01*
X160624895Y-95974278D01*
X160637435Y-95982914D01*
X160664231Y-96006792D01*
X160702280Y-96042859D01*
X160748579Y-96088067D01*
X160800123Y-96139364D01*
X160853909Y-96193701D01*
X160906935Y-96248028D01*
X160956195Y-96299295D01*
X160998687Y-96344451D01*
X161031407Y-96380446D01*
X161051351Y-96404230D01*
X161056119Y-96412190D01*
X161049257Y-96426865D01*
X161030020Y-96459014D01*
X161000430Y-96505492D01*
X160962510Y-96563156D01*
X160918282Y-96628860D01*
X160892654Y-96666336D01*
X160845941Y-96734768D01*
X160804432Y-96796520D01*
X160770140Y-96848519D01*
X160745080Y-96887692D01*
X160731264Y-96910965D01*
X160729188Y-96915855D01*
X160733895Y-96929755D01*
X160746723Y-96962150D01*
X160765738Y-97008485D01*
X160789003Y-97064206D01*
X160814584Y-97124758D01*
X160840545Y-97185586D01*
X160864950Y-97242136D01*
X160885863Y-97289852D01*
X160901349Y-97324181D01*
X160909472Y-97340568D01*
X160909952Y-97341212D01*
X160922707Y-97344341D01*
X160956677Y-97351321D01*
X161008340Y-97361467D01*
X161074176Y-97374092D01*
X161150664Y-97388509D01*
X161195290Y-97396823D01*
X161277021Y-97412384D01*
X161350843Y-97427192D01*
X161413021Y-97440436D01*
X161459822Y-97451305D01*
X161487509Y-97458989D01*
X161493074Y-97461427D01*
X161498526Y-97477930D01*
X161502924Y-97515200D01*
X161506272Y-97568880D01*
X161508574Y-97634612D01*
X161509832Y-97708037D01*
X161510048Y-97784796D01*
X161509227Y-97860532D01*
X161507371Y-97930886D01*
X161504482Y-97991500D01*
X161500565Y-98038016D01*
X161495622Y-98066075D01*
X161492657Y-98071916D01*
X161474934Y-98078917D01*
X161437381Y-98088927D01*
X161384964Y-98100769D01*
X161322652Y-98113267D01*
X161300900Y-98117310D01*
X161196024Y-98136520D01*
X161113180Y-98151991D01*
X161049630Y-98164337D01*
X161002637Y-98174173D01*
X160969463Y-98182114D01*
X160947371Y-98188776D01*
X160933624Y-98194773D01*
X160925484Y-98200719D01*
X160924345Y-98201894D01*
X160912977Y-98220826D01*
X160895635Y-98257669D01*
X160874050Y-98307913D01*
X160849954Y-98367046D01*
X160825079Y-98430556D01*
X160801157Y-98493932D01*
X160779919Y-98552662D01*
X160763097Y-98602235D01*
X160752422Y-98638139D01*
X160749627Y-98655862D01*
X160749860Y-98656483D01*
X160759331Y-98670970D01*
X160780818Y-98702844D01*
X160812063Y-98748789D01*
X160850807Y-98805485D01*
X160894793Y-98869617D01*
X160907319Y-98887842D01*
X160951984Y-98953914D01*
X160991288Y-99014200D01*
X161023088Y-99065235D01*
X161045245Y-99103560D01*
X161055617Y-99125711D01*
X161056119Y-99128432D01*
X161047405Y-99142736D01*
X161023325Y-99171072D01*
X160986976Y-99210396D01*
X160941453Y-99257661D01*
X160889852Y-99309823D01*
X160835267Y-99363835D01*
X160780794Y-99416653D01*
X160729529Y-99465231D01*
X160684567Y-99506523D01*
X160649004Y-99537485D01*
X160625935Y-99555070D01*
X160619554Y-99557941D01*
X160604699Y-99551178D01*
X160574286Y-99532939D01*
X160533268Y-99506297D01*
X160501709Y-99484852D01*
X160444525Y-99445503D01*
X160376806Y-99399171D01*
X160308880Y-99352913D01*
X160272361Y-99328155D01*
X160148752Y-99244547D01*
X160044991Y-99300650D01*
X159997720Y-99325228D01*
X159957523Y-99344331D01*
X159930326Y-99355227D01*
X159923402Y-99356743D01*
X159915077Y-99345549D01*
X159898654Y-99313917D01*
X159875357Y-99264765D01*
X159846414Y-99201010D01*
X159813050Y-99125571D01*
X159776491Y-99041364D01*
X159737964Y-98951308D01*
X159698694Y-98858321D01*
X159659908Y-98765320D01*
X159622830Y-98675223D01*
X159588689Y-98590948D01*
X159558708Y-98515413D01*
X159534116Y-98451534D01*
X159516136Y-98402231D01*
X159505997Y-98370421D01*
X159504366Y-98359496D01*
X159517291Y-98345561D01*
X159545589Y-98322940D01*
X159583346Y-98296333D01*
X159586515Y-98294228D01*
X159684100Y-98216114D01*
X159762786Y-98124982D01*
X159821891Y-98023745D01*
X159860732Y-97915318D01*
X159878628Y-97802614D01*
X159874897Y-97688548D01*
X159848857Y-97576034D01*
X159799825Y-97467985D01*
X159785400Y-97444345D01*
X159710369Y-97348887D01*
X159621730Y-97272232D01*
X159522549Y-97214780D01*
X159415895Y-97176929D01*
X159304836Y-97159078D01*
X159192439Y-97161625D01*
X159081773Y-97184970D01*
X158975906Y-97229510D01*
X158877905Y-97295645D01*
X158847590Y-97322487D01*
X158770438Y-97406512D01*
X158714218Y-97494966D01*
X158675653Y-97594115D01*
X158654174Y-97692303D01*
X158648872Y-97802697D01*
X158666552Y-97913640D01*
X158705419Y-98021381D01*
X158763677Y-98122169D01*
X158839531Y-98212256D01*
X158931183Y-98287892D01*
X158943228Y-98295864D01*
X158981389Y-98321974D01*
X159010399Y-98344595D01*
X159024268Y-98359039D01*
X159024469Y-98359496D01*
X159021492Y-98375121D01*
X159009689Y-98410582D01*
X158990286Y-98462962D01*
X158964512Y-98529345D01*
X158933591Y-98606814D01*
X158898751Y-98692450D01*
X158861217Y-98783337D01*
X158822217Y-98876559D01*
X158782977Y-98969197D01*
X158744724Y-99058335D01*
X158708683Y-99141055D01*
X158676083Y-99214441D01*
X158648148Y-99275575D01*
X158626105Y-99321541D01*
X158611182Y-99349421D01*
X158605172Y-99356743D01*
X158586809Y-99351041D01*
X158552448Y-99335749D01*
X158508016Y-99313599D01*
X158483583Y-99300650D01*
X158379822Y-99244547D01*
X158256213Y-99328155D01*
X158193114Y-99370987D01*
X158124030Y-99418122D01*
X158059293Y-99462503D01*
X158026866Y-99484852D01*
X157981259Y-99515477D01*
X157942640Y-99539747D01*
X157916048Y-99554587D01*
X157907410Y-99557724D01*
X157894839Y-99549261D01*
X157867016Y-99525636D01*
X157826639Y-99489302D01*
X157776405Y-99442711D01*
X157719012Y-99388317D01*
X157682714Y-99353392D01*
X157619210Y-99290996D01*
X157564327Y-99235188D01*
X157520286Y-99188354D01*
X157489305Y-99152882D01*
X157473602Y-99131161D01*
X157472095Y-99126752D01*
X157479086Y-99109985D01*
X157498406Y-99076082D01*
X157527909Y-99028476D01*
X157565455Y-98970599D01*
X157608900Y-98905884D01*
X157621255Y-98887842D01*
X157666273Y-98822267D01*
X157706660Y-98763228D01*
X157740160Y-98714042D01*
X157764514Y-98678028D01*
X157777464Y-98658502D01*
X157778715Y-98656483D01*
X157776844Y-98640922D01*
X157766913Y-98606709D01*
X157750653Y-98558355D01*
X157729795Y-98500371D01*
X157706073Y-98437270D01*
X157681216Y-98373563D01*
X157656958Y-98313761D01*
X157635029Y-98262376D01*
X157617162Y-98223919D01*
X157605087Y-98202902D01*
X157604229Y-98201894D01*
X157596846Y-98195888D01*
X157584375Y-98189948D01*
X157564080Y-98183460D01*
X157533222Y-98175809D01*
X157489066Y-98166380D01*
X157428874Y-98154559D01*
X157349907Y-98139729D01*
X157249430Y-98121277D01*
X157227675Y-98117310D01*
X157163198Y-98104853D01*
X157106989Y-98092666D01*
X157064013Y-98081926D01*
X157039240Y-98073809D01*
X157035918Y-98071916D01*
X157030444Y-98055138D01*
X157025994Y-98017645D01*
X157022572Y-97963794D01*
X157020181Y-97897944D01*
X157018823Y-97824453D01*
X157018501Y-97747680D01*
X157019219Y-97671983D01*
X157020979Y-97601720D01*
X157023784Y-97541250D01*
X157027638Y-97494930D01*
X157032543Y-97467119D01*
X157035500Y-97461427D01*
X157051963Y-97455686D01*
X157089449Y-97446345D01*
X157144225Y-97434215D01*
X157212555Y-97420107D01*
X157290706Y-97404830D01*
X157333284Y-97396823D01*
X157414071Y-97381721D01*
X157486113Y-97368040D01*
X157545889Y-97356467D01*
X157589879Y-97347687D01*
X157614561Y-97342387D01*
X157618623Y-97341212D01*
X157625489Y-97327965D01*
X157640002Y-97296057D01*
X157660229Y-97250047D01*
X157684234Y-97194492D01*
X157710082Y-97133953D01*
X157735840Y-97072986D01*
X157759573Y-97016151D01*
X157779346Y-96968006D01*
X157793224Y-96933110D01*
X157799274Y-96916021D01*
X157799386Y-96915274D01*
X157792528Y-96901793D01*
X157773302Y-96870770D01*
X157743728Y-96825289D01*
X157705827Y-96768432D01*
X157661620Y-96703283D01*
X157635921Y-96665862D01*
X157589093Y-96597247D01*
X157547501Y-96534952D01*
X157513175Y-96482129D01*
X157488143Y-96441927D01*
X157474435Y-96417500D01*
X157472456Y-96412024D01*
X157480966Y-96399278D01*
X157504493Y-96372063D01*
X157540032Y-96333428D01*
X157584577Y-96286423D01*
X157635123Y-96234095D01*
X157688664Y-96179495D01*
X157742195Y-96125670D01*
X157792711Y-96075670D01*
X157837206Y-96032543D01*
X157872675Y-95999339D01*
X157896113Y-95979106D01*
X157903954Y-95974278D01*
X157916720Y-95981067D01*
X157947256Y-96000142D01*
X157992590Y-96029561D01*
X158049756Y-96067381D01*
X158115784Y-96111661D01*
X158165590Y-96145395D01*
X158417236Y-96316512D01*
X158626999Y-96230041D01*
X158836763Y-96143570D01*
X158893611Y-95842018D01*
X158950460Y-95540466D01*
X159578115Y-95540466D01*
X159634964Y-95842018D01*
X159634964Y-95842018D01*
G37*
X159634964Y-95842018D02*
X159691812Y-96143570D01*
X160111338Y-96316512D01*
X160362984Y-96145395D01*
X160433458Y-96097750D01*
X160497163Y-96055210D01*
X160551126Y-96019715D01*
X160592373Y-95993210D01*
X160617934Y-95977636D01*
X160624895Y-95974278D01*
X160637435Y-95982914D01*
X160664231Y-96006792D01*
X160702280Y-96042859D01*
X160748579Y-96088067D01*
X160800123Y-96139364D01*
X160853909Y-96193701D01*
X160906935Y-96248028D01*
X160956195Y-96299295D01*
X160998687Y-96344451D01*
X161031407Y-96380446D01*
X161051351Y-96404230D01*
X161056119Y-96412190D01*
X161049257Y-96426865D01*
X161030020Y-96459014D01*
X161000430Y-96505492D01*
X160962510Y-96563156D01*
X160918282Y-96628860D01*
X160892654Y-96666336D01*
X160845941Y-96734768D01*
X160804432Y-96796520D01*
X160770140Y-96848519D01*
X160745080Y-96887692D01*
X160731264Y-96910965D01*
X160729188Y-96915855D01*
X160733895Y-96929755D01*
X160746723Y-96962150D01*
X160765738Y-97008485D01*
X160789003Y-97064206D01*
X160814584Y-97124758D01*
X160840545Y-97185586D01*
X160864950Y-97242136D01*
X160885863Y-97289852D01*
X160901349Y-97324181D01*
X160909472Y-97340568D01*
X160909952Y-97341212D01*
X160922707Y-97344341D01*
X160956677Y-97351321D01*
X161008340Y-97361467D01*
X161074176Y-97374092D01*
X161150664Y-97388509D01*
X161195290Y-97396823D01*
X161277021Y-97412384D01*
X161350843Y-97427192D01*
X161413021Y-97440436D01*
X161459822Y-97451305D01*
X161487509Y-97458989D01*
X161493074Y-97461427D01*
X161498526Y-97477930D01*
X161502924Y-97515200D01*
X161506272Y-97568880D01*
X161508574Y-97634612D01*
X161509832Y-97708037D01*
X161510048Y-97784796D01*
X161509227Y-97860532D01*
X161507371Y-97930886D01*
X161504482Y-97991500D01*
X161500565Y-98038016D01*
X161495622Y-98066075D01*
X161492657Y-98071916D01*
X161474934Y-98078917D01*
X161437381Y-98088927D01*
X161384964Y-98100769D01*
X161322652Y-98113267D01*
X161300900Y-98117310D01*
X161196024Y-98136520D01*
X161113180Y-98151991D01*
X161049630Y-98164337D01*
X161002637Y-98174173D01*
X160969463Y-98182114D01*
X160947371Y-98188776D01*
X160933624Y-98194773D01*
X160925484Y-98200719D01*
X160924345Y-98201894D01*
X160912977Y-98220826D01*
X160895635Y-98257669D01*
X160874050Y-98307913D01*
X160849954Y-98367046D01*
X160825079Y-98430556D01*
X160801157Y-98493932D01*
X160779919Y-98552662D01*
X160763097Y-98602235D01*
X160752422Y-98638139D01*
X160749627Y-98655862D01*
X160749860Y-98656483D01*
X160759331Y-98670970D01*
X160780818Y-98702844D01*
X160812063Y-98748789D01*
X160850807Y-98805485D01*
X160894793Y-98869617D01*
X160907319Y-98887842D01*
X160951984Y-98953914D01*
X160991288Y-99014200D01*
X161023088Y-99065235D01*
X161045245Y-99103560D01*
X161055617Y-99125711D01*
X161056119Y-99128432D01*
X161047405Y-99142736D01*
X161023325Y-99171072D01*
X160986976Y-99210396D01*
X160941453Y-99257661D01*
X160889852Y-99309823D01*
X160835267Y-99363835D01*
X160780794Y-99416653D01*
X160729529Y-99465231D01*
X160684567Y-99506523D01*
X160649004Y-99537485D01*
X160625935Y-99555070D01*
X160619554Y-99557941D01*
X160604699Y-99551178D01*
X160574286Y-99532939D01*
X160533268Y-99506297D01*
X160501709Y-99484852D01*
X160444525Y-99445503D01*
X160376806Y-99399171D01*
X160308880Y-99352913D01*
X160272361Y-99328155D01*
X160148752Y-99244547D01*
X160044991Y-99300650D01*
X159997720Y-99325228D01*
X159957523Y-99344331D01*
X159930326Y-99355227D01*
X159923402Y-99356743D01*
X159915077Y-99345549D01*
X159898654Y-99313917D01*
X159875357Y-99264765D01*
X159846414Y-99201010D01*
X159813050Y-99125571D01*
X159776491Y-99041364D01*
X159737964Y-98951308D01*
X159698694Y-98858321D01*
X159659908Y-98765320D01*
X159622830Y-98675223D01*
X159588689Y-98590948D01*
X159558708Y-98515413D01*
X159534116Y-98451534D01*
X159516136Y-98402231D01*
X159505997Y-98370421D01*
X159504366Y-98359496D01*
X159517291Y-98345561D01*
X159545589Y-98322940D01*
X159583346Y-98296333D01*
X159586515Y-98294228D01*
X159684100Y-98216114D01*
X159762786Y-98124982D01*
X159821891Y-98023745D01*
X159860732Y-97915318D01*
X159878628Y-97802614D01*
X159874897Y-97688548D01*
X159848857Y-97576034D01*
X159799825Y-97467985D01*
X159785400Y-97444345D01*
X159710369Y-97348887D01*
X159621730Y-97272232D01*
X159522549Y-97214780D01*
X159415895Y-97176929D01*
X159304836Y-97159078D01*
X159192439Y-97161625D01*
X159081773Y-97184970D01*
X158975906Y-97229510D01*
X158877905Y-97295645D01*
X158847590Y-97322487D01*
X158770438Y-97406512D01*
X158714218Y-97494966D01*
X158675653Y-97594115D01*
X158654174Y-97692303D01*
X158648872Y-97802697D01*
X158666552Y-97913640D01*
X158705419Y-98021381D01*
X158763677Y-98122169D01*
X158839531Y-98212256D01*
X158931183Y-98287892D01*
X158943228Y-98295864D01*
X158981389Y-98321974D01*
X159010399Y-98344595D01*
X159024268Y-98359039D01*
X159024469Y-98359496D01*
X159021492Y-98375121D01*
X159009689Y-98410582D01*
X158990286Y-98462962D01*
X158964512Y-98529345D01*
X158933591Y-98606814D01*
X158898751Y-98692450D01*
X158861217Y-98783337D01*
X158822217Y-98876559D01*
X158782977Y-98969197D01*
X158744724Y-99058335D01*
X158708683Y-99141055D01*
X158676083Y-99214441D01*
X158648148Y-99275575D01*
X158626105Y-99321541D01*
X158611182Y-99349421D01*
X158605172Y-99356743D01*
X158586809Y-99351041D01*
X158552448Y-99335749D01*
X158508016Y-99313599D01*
X158483583Y-99300650D01*
X158379822Y-99244547D01*
X158256213Y-99328155D01*
X158193114Y-99370987D01*
X158124030Y-99418122D01*
X158059293Y-99462503D01*
X158026866Y-99484852D01*
X157981259Y-99515477D01*
X157942640Y-99539747D01*
X157916048Y-99554587D01*
X157907410Y-99557724D01*
X157894839Y-99549261D01*
X157867016Y-99525636D01*
X157826639Y-99489302D01*
X157776405Y-99442711D01*
X157719012Y-99388317D01*
X157682714Y-99353392D01*
X157619210Y-99290996D01*
X157564327Y-99235188D01*
X157520286Y-99188354D01*
X157489305Y-99152882D01*
X157473602Y-99131161D01*
X157472095Y-99126752D01*
X157479086Y-99109985D01*
X157498406Y-99076082D01*
X157527909Y-99028476D01*
X157565455Y-98970599D01*
X157608900Y-98905884D01*
X157621255Y-98887842D01*
X157666273Y-98822267D01*
X157706660Y-98763228D01*
X157740160Y-98714042D01*
X157764514Y-98678028D01*
X157777464Y-98658502D01*
X157778715Y-98656483D01*
X157776844Y-98640922D01*
X157766913Y-98606709D01*
X157750653Y-98558355D01*
X157729795Y-98500371D01*
X157706073Y-98437270D01*
X157681216Y-98373563D01*
X157656958Y-98313761D01*
X157635029Y-98262376D01*
X157617162Y-98223919D01*
X157605087Y-98202902D01*
X157604229Y-98201894D01*
X157596846Y-98195888D01*
X157584375Y-98189948D01*
X157564080Y-98183460D01*
X157533222Y-98175809D01*
X157489066Y-98166380D01*
X157428874Y-98154559D01*
X157349907Y-98139729D01*
X157249430Y-98121277D01*
X157227675Y-98117310D01*
X157163198Y-98104853D01*
X157106989Y-98092666D01*
X157064013Y-98081926D01*
X157039240Y-98073809D01*
X157035918Y-98071916D01*
X157030444Y-98055138D01*
X157025994Y-98017645D01*
X157022572Y-97963794D01*
X157020181Y-97897944D01*
X157018823Y-97824453D01*
X157018501Y-97747680D01*
X157019219Y-97671983D01*
X157020979Y-97601720D01*
X157023784Y-97541250D01*
X157027638Y-97494930D01*
X157032543Y-97467119D01*
X157035500Y-97461427D01*
X157051963Y-97455686D01*
X157089449Y-97446345D01*
X157144225Y-97434215D01*
X157212555Y-97420107D01*
X157290706Y-97404830D01*
X157333284Y-97396823D01*
X157414071Y-97381721D01*
X157486113Y-97368040D01*
X157545889Y-97356467D01*
X157589879Y-97347687D01*
X157614561Y-97342387D01*
X157618623Y-97341212D01*
X157625489Y-97327965D01*
X157640002Y-97296057D01*
X157660229Y-97250047D01*
X157684234Y-97194492D01*
X157710082Y-97133953D01*
X157735840Y-97072986D01*
X157759573Y-97016151D01*
X157779346Y-96968006D01*
X157793224Y-96933110D01*
X157799274Y-96916021D01*
X157799386Y-96915274D01*
X157792528Y-96901793D01*
X157773302Y-96870770D01*
X157743728Y-96825289D01*
X157705827Y-96768432D01*
X157661620Y-96703283D01*
X157635921Y-96665862D01*
X157589093Y-96597247D01*
X157547501Y-96534952D01*
X157513175Y-96482129D01*
X157488143Y-96441927D01*
X157474435Y-96417500D01*
X157472456Y-96412024D01*
X157480966Y-96399278D01*
X157504493Y-96372063D01*
X157540032Y-96333428D01*
X157584577Y-96286423D01*
X157635123Y-96234095D01*
X157688664Y-96179495D01*
X157742195Y-96125670D01*
X157792711Y-96075670D01*
X157837206Y-96032543D01*
X157872675Y-95999339D01*
X157896113Y-95979106D01*
X157903954Y-95974278D01*
X157916720Y-95981067D01*
X157947256Y-96000142D01*
X157992590Y-96029561D01*
X158049756Y-96067381D01*
X158115784Y-96111661D01*
X158165590Y-96145395D01*
X158417236Y-96316512D01*
X158626999Y-96230041D01*
X158836763Y-96143570D01*
X158893611Y-95842018D01*
X158950460Y-95540466D01*
X159578115Y-95540466D01*
X159634964Y-95842018D01*
D11*
X157464286Y-116260571D02*
X157130952Y-116260571D01*
X157130952Y-116784381D02*
X157130952Y-115784381D01*
X157607143Y-115784381D01*
X157940476Y-116498667D02*
X158416667Y-116498667D01*
X157845238Y-116784381D02*
X158178571Y-115784381D01*
X158511905Y-116784381D01*
X158845238Y-116784381D02*
X158845238Y-115784381D01*
X159416667Y-116784381D01*
X159416667Y-115784381D01*
X160416667Y-116784381D02*
X159845238Y-116784381D01*
X160130952Y-116784381D02*
X160130952Y-115784381D01*
X160035714Y-115927238D01*
X159940476Y-116022476D01*
X159845238Y-116070095D01*
X164011429Y-115062000D02*
X164011429Y-115932857D01*
X164011429Y-115497429D02*
X162487429Y-115497429D01*
X162705143Y-115642572D01*
X162850286Y-115787714D01*
X162922857Y-115932857D01*
X162632571Y-114481428D02*
X162560000Y-114408857D01*
X162487429Y-114263714D01*
X162487429Y-113900857D01*
X162560000Y-113755714D01*
X162632571Y-113683143D01*
X162777714Y-113610571D01*
X162922857Y-113610571D01*
X163140571Y-113683143D01*
X164011429Y-114554000D01*
X164011429Y-113610571D01*
X162487429Y-113175142D02*
X164011429Y-112667142D01*
X162487429Y-112159142D01*
X163576000Y-111723713D02*
X163576000Y-110997999D01*
X164011429Y-111868856D02*
X162487429Y-111360856D01*
X164011429Y-110852856D01*
X162487429Y-110344856D02*
X163721143Y-110344856D01*
X163866286Y-110272284D01*
X163938857Y-110199713D01*
X164011429Y-110054570D01*
X164011429Y-109764284D01*
X163938857Y-109619142D01*
X163866286Y-109546570D01*
X163721143Y-109473999D01*
X162487429Y-109473999D01*
X162487429Y-108893428D02*
X164011429Y-107877428D01*
X162487429Y-107877428D02*
X164011429Y-108893428D01*
X164156571Y-107659713D02*
X164156571Y-106498570D01*
X164011429Y-106135713D02*
X162487429Y-106135713D01*
X164011429Y-105409999D02*
X162487429Y-105409999D01*
X164011429Y-104539142D01*
X162487429Y-104539142D01*
X164011429Y-103015142D02*
X164011429Y-103885999D01*
X164011429Y-103450571D02*
X162487429Y-103450571D01*
X162705143Y-103595714D01*
X162850286Y-103740856D01*
X162922857Y-103885999D01*
X134801429Y-115824000D02*
X134801429Y-116694857D01*
X134801429Y-116259429D02*
X133277429Y-116259429D01*
X133495143Y-116404572D01*
X133640286Y-116549714D01*
X133712857Y-116694857D01*
X133422571Y-115243428D02*
X133350000Y-115170857D01*
X133277429Y-115025714D01*
X133277429Y-114662857D01*
X133350000Y-114517714D01*
X133422571Y-114445143D01*
X133567714Y-114372571D01*
X133712857Y-114372571D01*
X133930571Y-114445143D01*
X134801429Y-115316000D01*
X134801429Y-114372571D01*
X133277429Y-113937142D02*
X134801429Y-113429142D01*
X133277429Y-112921142D01*
X134366000Y-112485713D02*
X134366000Y-111759999D01*
X134801429Y-112630856D02*
X133277429Y-112122856D01*
X134801429Y-111614856D01*
X133277429Y-111106856D02*
X134511143Y-111106856D01*
X134656286Y-111034284D01*
X134728857Y-110961713D01*
X134801429Y-110816570D01*
X134801429Y-110526284D01*
X134728857Y-110381142D01*
X134656286Y-110308570D01*
X134511143Y-110235999D01*
X133277429Y-110235999D01*
X133277429Y-109655428D02*
X134801429Y-108639428D01*
X133277429Y-108639428D02*
X134801429Y-109655428D01*
X134946571Y-108421713D02*
X134946571Y-107260570D01*
X133277429Y-106607427D02*
X133277429Y-106317141D01*
X133350000Y-106171999D01*
X133495143Y-106026856D01*
X133785429Y-105954284D01*
X134293429Y-105954284D01*
X134583714Y-106026856D01*
X134728857Y-106171999D01*
X134801429Y-106317141D01*
X134801429Y-106607427D01*
X134728857Y-106752570D01*
X134583714Y-106897713D01*
X134293429Y-106970284D01*
X133785429Y-106970284D01*
X133495143Y-106897713D01*
X133350000Y-106752570D01*
X133277429Y-106607427D01*
X133277429Y-105301142D02*
X134511143Y-105301142D01*
X134656286Y-105228570D01*
X134728857Y-105155999D01*
X134801429Y-105010856D01*
X134801429Y-104720570D01*
X134728857Y-104575428D01*
X134656286Y-104502856D01*
X134511143Y-104430285D01*
X133277429Y-104430285D01*
X133277429Y-103922285D02*
X133277429Y-103051428D01*
X134801429Y-103486857D02*
X133277429Y-103486857D01*
X134801429Y-101745142D02*
X134801429Y-102615999D01*
X134801429Y-102180571D02*
X133277429Y-102180571D01*
X133495143Y-102325714D01*
X133640286Y-102470856D01*
X133712857Y-102615999D01*
X153360381Y-109958095D02*
X152360381Y-109958095D01*
X152360381Y-109720000D01*
X152408000Y-109577142D01*
X152503238Y-109481904D01*
X152598476Y-109434285D01*
X152788952Y-109386666D01*
X152931810Y-109386666D01*
X153122286Y-109434285D01*
X153217524Y-109481904D01*
X153312762Y-109577142D01*
X153360381Y-109720000D01*
X153360381Y-109958095D01*
X153360381Y-108434285D02*
X153360381Y-109005714D01*
X153360381Y-108720000D02*
X152360381Y-108720000D01*
X152503238Y-108815238D01*
X152598476Y-108910476D01*
X152646095Y-109005714D01*
X147304286Y-116260571D02*
X146970952Y-116260571D01*
X146970952Y-116784381D02*
X146970952Y-115784381D01*
X147447143Y-115784381D01*
X147780476Y-116498667D02*
X148256667Y-116498667D01*
X147685238Y-116784381D02*
X148018571Y-115784381D01*
X148351905Y-116784381D01*
X148685238Y-116784381D02*
X148685238Y-115784381D01*
X149256667Y-116784381D01*
X149256667Y-115784381D01*
X149685238Y-115879619D02*
X149732857Y-115832000D01*
X149828095Y-115784381D01*
X150066191Y-115784381D01*
X150161429Y-115832000D01*
X150209048Y-115879619D01*
X150256667Y-115974857D01*
X150256667Y-116070095D01*
X150209048Y-116212952D01*
X149637619Y-116784381D01*
X150256667Y-116784381D01*
X137144286Y-116260571D02*
X136810952Y-116260571D01*
X136810952Y-116784381D02*
X136810952Y-115784381D01*
X137287143Y-115784381D01*
X137620476Y-116498667D02*
X138096667Y-116498667D01*
X137525238Y-116784381D02*
X137858571Y-115784381D01*
X138191905Y-116784381D01*
X138525238Y-116784381D02*
X138525238Y-115784381D01*
X139096667Y-116784381D01*
X139096667Y-115784381D01*
X139477619Y-115784381D02*
X140096667Y-115784381D01*
X139763333Y-116165333D01*
X139906191Y-116165333D01*
X140001429Y-116212952D01*
X140049048Y-116260571D01*
X140096667Y-116355810D01*
X140096667Y-116593905D01*
X140049048Y-116689143D01*
X140001429Y-116736762D01*
X139906191Y-116784381D01*
X139620476Y-116784381D01*
X139525238Y-116736762D01*
X139477619Y-116689143D01*
X146412857Y-95141143D02*
X145904857Y-95141143D01*
X145904857Y-95939429D02*
X145904857Y-94415429D01*
X146630571Y-94415429D01*
X147138572Y-95504000D02*
X147864286Y-95504000D01*
X146993429Y-95939429D02*
X147501429Y-94415429D01*
X148009429Y-95939429D01*
X148517429Y-95939429D02*
X148517429Y-94415429D01*
X149388286Y-95939429D01*
X149388286Y-94415429D01*
X149751143Y-96084571D02*
X150912286Y-96084571D01*
X151275143Y-95939429D02*
X151275143Y-94415429D01*
X152000857Y-95939429D02*
X152000857Y-94415429D01*
X152871714Y-95939429D01*
X152871714Y-94415429D01*
X154395714Y-95939429D02*
X153524857Y-95939429D01*
X153960285Y-95939429D02*
X153960285Y-94415429D01*
X153815142Y-94633143D01*
X153670000Y-94778286D01*
X153524857Y-94850857D01*
M02*
